<svg xmlns="http://www.w3.org/2000/svg" xmlns:xlink="http://www.w3.org/1999/xlink" width="131.24pt" height="132.39pt" viewBox="0 0 131.24 132.39"><defs><clipPath id="clip1"><path d="M 0 0 L 131.238281 0 L 131.238281 132.390625 L 0 132.390625 Z M 0 0 "></path></clipPath></defs><g id="surface1"><g clip-path="url(#clip1)" clip-rule="nonzero"><path style=" stroke:none;fill-rule:nonzero;fill:rgb(84.298706%,68.199158%,2.69928%);fill-opacity:1;" d="M 131.238281 66.195313 C 131.238281 102.753906 101.859375 132.390625 65.621094 132.390625 C 29.378906 132.390625 0 102.753906 0 66.195313 C 0 29.636719 29.378906 0 65.621094 0 C 101.859375 0 131.238281 29.636719 131.238281 66.195313 "></path></g><path style=" stroke:none;fill-rule:nonzero;fill:rgb(93.699646%,83.898926%,43.499756%);fill-opacity:1;" d="M 129.316406 66.195313 C 129.316406 101.375 100.800781 129.894531 65.621094 129.894531 C 30.441406 129.894531 1.921875 101.375 1.921875 66.195313 C 1.921875 31.015625 30.441406 2.496094 65.621094 2.496094 C 100.800781 2.496094 129.316406 31.015625 129.316406 66.195313 "></path><path style=" stroke:none;fill-rule:nonzero;fill:rgb(0%,44.699097%,73.699951%);fill-opacity:1;" d="M 126.875 66.195313 C 126.875 100.023438 99.449219 127.453125 65.621094 127.453125 C 31.789063 127.453125 4.363281 100.023438 4.363281 66.195313 C 4.363281 32.363281 31.789063 4.941406 65.621094 4.941406 C 99.449219 4.941406 126.875 32.363281 126.875 66.195313 "></path><path style="fill:none;stroke-width:2.35294;stroke-linecap:butt;stroke-linejoin:miter;stroke:rgb(0%,44.699097%,73.699951%);stroke-opacity:1;stroke-miterlimit:4;" d="M 1268.75 661.946875 C 1268.75 323.665625 994.492188 49.36875 656.210938 49.36875 C 317.890625 49.36875 43.632813 323.665625 43.632813 661.946875 C 43.632813 1000.267188 317.890625 1274.485938 656.210938 1274.485938 C 994.492188 1274.485938 1268.75 1000.267188 1268.75 661.946875 Z M 1268.75 661.946875 " transform="matrix(0.1,0,0,-0.1,0,132.39)"></path><path style=" stroke:none;fill-rule:nonzero;fill:rgb(100%,100%,100%);fill-opacity:1;" d="M 107.542969 66.195313 C 107.542969 89.347656 88.773438 108.117188 65.621094 108.117188 C 42.464844 108.117188 23.695313 89.347656 23.695313 66.195313 C 23.695313 43.042969 42.464844 24.273438 65.621094 24.273438 C 88.773438 24.273438 107.542969 43.042969 107.542969 66.195313 "></path><path style="fill:none;stroke-width:2.35294;stroke-linecap:butt;stroke-linejoin:miter;stroke:rgb(100%,100%,100%);stroke-opacity:1;stroke-miterlimit:4;" d="M 1075.429688 661.946875 C 1075.429688 430.423438 887.734375 242.728125 656.210938 242.728125 C 424.648438 242.728125 236.953125 430.423438 236.953125 661.946875 C 236.953125 893.470313 424.648438 1081.165625 656.210938 1081.165625 C 887.734375 1081.165625 1075.429688 893.470313 1075.429688 661.946875 Z M 1075.429688 661.946875 " transform="matrix(0.1,0,0,-0.1,0,132.39)"></path><path style=" stroke:none;fill-rule:nonzero;fill:rgb(14.898682%,56.498718%,22.698975%);fill-opacity:1;" d="M 102.253906 66.195313 C 102.253906 86.425781 85.851563 102.824219 65.621094 102.824219 C 45.386719 102.824219 28.988281 86.425781 28.988281 66.195313 C 28.988281 45.964844 45.386719 29.566406 65.621094 29.566406 C 85.851563 29.566406 102.253906 45.964844 102.253906 66.195313 "></path><path style="fill:none;stroke-width:9.11381;stroke-linecap:butt;stroke-linejoin:miter;stroke:rgb(93.699646%,83.898926%,43.499756%);stroke-opacity:1;stroke-miterlimit:4;" d="M 1022.539063 661.946875 C 1022.539063 459.642188 858.515625 295.657813 656.210938 295.657813 C 453.867188 295.657813 289.882813 459.642188 289.882813 661.946875 C 289.882813 864.251563 453.867188 1028.235938 656.210938 1028.235938 C 858.515625 1028.235938 1022.539063 864.251563 1022.539063 661.946875 Z M 1022.539063 661.946875 " transform="matrix(0.1,0,0,-0.1,0,132.39)"></path><path style=" stroke:none;fill-rule:nonzero;fill:rgb(100%,100%,100%);fill-opacity:1;" d="M 13.730469 60.878906 L 14.835938 64.285156 L 18.414063 64.285156 L 15.519531 66.386719 L 16.625 69.792969 L 13.730469 67.6875 L 10.832031 69.792969 L 11.941406 66.386719 L 9.042969 64.285156 L 12.625 64.285156 L 13.730469 60.878906 "></path><path style="fill:none;stroke-width:2.35294;stroke-linecap:butt;stroke-linejoin:miter;stroke:rgb(73.699951%,74.499512%,75.299072%);stroke-opacity:1;stroke-miterlimit:4;" d="M 137.304688 715.110938 L 148.359375 681.048438 L 184.140625 681.048438 L 155.195313 660.032813 L 166.25 625.970313 L 137.304688 647.025 L 108.320313 625.970313 L 119.414063 660.032813 L 90.429688 681.048438 L 126.25 681.048438 Z M 137.304688 715.110938 " transform="matrix(0.1,0,0,-0.1,0,132.39)"></path><path style=" stroke:none;fill-rule:nonzero;fill:rgb(100%,100%,100%);fill-opacity:1;" d="M 118.566406 60.878906 L 119.675781 64.285156 L 123.253906 64.285156 L 120.355469 66.386719 L 121.460938 69.792969 L 118.566406 67.6875 L 115.671875 69.792969 L 116.777344 66.386719 L 113.882813 64.285156 L 117.460938 64.285156 L 118.566406 60.878906 "></path><path style="fill:none;stroke-width:2.35294;stroke-linecap:butt;stroke-linejoin:miter;stroke:rgb(73.699951%,74.499512%,75.299072%);stroke-opacity:1;stroke-miterlimit:4;" d="M 1185.664063 715.110938 L 1196.757813 681.048438 L 1232.539063 681.048438 L 1203.554688 660.032813 L 1214.609375 625.970313 L 1185.664063 647.025 L 1156.71875 625.970313 L 1167.773438 660.032813 L 1138.828125 681.048438 L 1174.609375 681.048438 Z M 1185.664063 715.110938 " transform="matrix(0.1,0,0,-0.1,0,132.39)"></path><path style=" stroke:none;fill-rule:nonzero;fill:rgb(100%,100%,100%);fill-opacity:1;" d="M 20.648438 56.023438 L 9.910156 51.464844 L 12.378906 45.644531 L 14.128906 46.386719 L 12.402344 50.460938 L 14.917969 51.527344 L 16.222656 48.453125 L 17.976563 49.195313 L 16.667969 52.269531 L 21.390625 54.273438 L 20.648438 56.023438 "></path><path style=" stroke:none;fill-rule:nonzero;fill:rgb(100%,100%,100%);fill-opacity:1;" d="M 23.835938 48.863281 L 13.789063 42.929688 L 17.097656 37.328125 L 18.734375 38.292969 L 16.378906 42.28125 L 18.75 43.679688 L 20.46875 40.769531 L 22.074219 41.71875 L 20.355469 44.628906 L 23.078125 46.238281 L 25.539063 42.074219 L 27.246094 43.082031 L 23.835938 48.863281 "></path><path style=" stroke:none;fill-rule:nonzero;fill:rgb(100%,100%,100%);fill-opacity:1;" d="M 27.851563 39.121094 L 28.503906 38.328125 C 29.160156 37.527344 29.394531 36.753906 29.207031 36.007813 C 29.019531 35.261719 28.382813 34.445313 27.304688 33.558594 C 26.285156 32.71875 25.382813 32.289063 24.597656 32.261719 C 23.816406 32.234375 23.101563 32.613281 22.460938 33.398438 L 21.824219 34.171875 Z M 28.144531 41.808594 L 19.121094 34.398438 L 21.066406 32.035156 C 22.046875 30.835938 23.167969 30.242188 24.425781 30.25 C 25.683594 30.257813 27.050781 30.867188 28.523438 32.078125 C 30.035156 33.320313 30.914063 34.558594 31.167969 35.796875 C 31.421875 37.039063 31.046875 38.269531 30.039063 39.5 L 28.144531 41.808594 "></path><path style=" stroke:none;fill-rule:nonzero;fill:rgb(100%,100%,100%);fill-opacity:1;" d="M 34.351563 34.613281 L 26.671875 25.820313 L 31.574219 21.542969 L 32.820313 22.972656 L 29.339844 26.011719 L 31.148438 28.082031 L 33.6875 25.867188 L 34.917969 27.273438 L 32.378906 29.492188 L 34.457031 31.871094 L 38.09375 28.699219 L 39.40625 30.199219 L 34.351563 34.613281 "></path><path style=" stroke:none;fill-rule:nonzero;fill:rgb(100%,100%,100%);fill-opacity:1;" d="M 38.855469 22.699219 L 40.261719 21.859375 C 40.777344 21.546875 41.09375 21.207031 41.199219 20.835938 C 41.308594 20.464844 41.21875 20.039063 40.929688 19.558594 C 40.644531 19.085938 40.316406 18.808594 39.9375 18.730469 C 39.558594 18.652344 39.109375 18.769531 38.59375 19.082031 L 37.1875 19.925781 Z M 40.664063 29.296875 L 34.652344 19.292969 L 37.558594 17.546875 C 38.648438 16.890625 39.605469 16.652344 40.429688 16.820313 C 41.253906 16.992188 41.972656 17.585938 42.582031 18.597656 C 42.96875 19.246094 43.160156 19.871094 43.148438 20.46875 C 43.132813 21.070313 42.921875 21.605469 42.507813 22.078125 L 47.117188 25.421875 L 45.375 26.46875 L 41.28125 23.402344 L 39.808594 24.285156 L 42.25 28.34375 L 40.664063 29.296875 "></path><path style=" stroke:none;fill-rule:nonzero;fill:rgb(100%,100%,100%);fill-opacity:1;" d="M 48.878906 20 L 51.277344 19.128906 L 48.292969 14.65625 Z M 47.675781 25.128906 L 46.53125 13.125 L 48.746094 12.320313 L 55.570313 22.257813 L 53.796875 22.902344 L 52.34375 20.722656 L 49.089844 21.902344 L 49.359375 24.515625 L 47.675781 25.128906 "></path><path style=" stroke:none;fill-rule:nonzero;fill:rgb(100%,100%,100%);fill-opacity:1;" d="M 56.738281 22.09375 L 54.820313 10.585938 L 56.714844 10.269531 L 58.308594 19.808594 L 62.46875 19.113281 L 62.800781 21.082031 L 56.738281 22.09375 "></path><path style=" stroke:none;fill-rule:nonzero;fill:rgb(100%,100%,100%);fill-opacity:1;" d="M 70.722656 16.820313 L 73.257813 17.113281 L 72.589844 11.78125 Z M 67.351563 20.867188 L 71.703125 9.625 L 74.042969 9.898438 L 75.691406 21.835938 L 73.820313 21.617188 L 73.5 19.007813 L 70.0625 18.609375 L 69.132813 21.074219 L 67.351563 20.867188 "></path><path style=" stroke:none;fill-rule:nonzero;fill:rgb(100%,100%,100%);fill-opacity:1;" d="M 78.46875 22.726563 L 79.121094 10.699219 L 80.925781 11.269531 L 80.246094 21.035156 L 85.265625 12.636719 L 87.078125 13.210938 L 80.71875 23.433594 L 78.46875 22.726563 "></path><path style=" stroke:none;fill-rule:nonzero;fill:rgb(100%,100%,100%);fill-opacity:1;" d="M 84.789063 25.070313 L 89.867188 14.570313 L 91.578125 15.394531 L 86.496094 25.898438 L 84.789063 25.070313 "></path><path style=" stroke:none;fill-rule:nonzero;fill:rgb(100%,100%,100%);fill-opacity:1;" d="M 92.640625 24.320313 L 94.761719 25.734375 L 96.59375 20.683594 Z M 87.796875 26.386719 L 96.785156 18.359375 L 98.746094 19.667969 L 94.777344 31.046875 L 93.210938 30 L 94.109375 27.53125 L 91.234375 25.613281 L 89.285156 27.378906 L 87.796875 26.386719 "></path><path style=" stroke:none;fill-rule:nonzero;fill:rgb(100%,100%,100%);fill-opacity:1;" d="M 96.28125 32.515625 L 102.804688 25.265625 L 100.847656 23.503906 L 102.132813 22.078125 L 107.464844 26.875 L 106.179688 28.300781 L 104.222656 26.542969 L 97.699219 33.792969 L 96.28125 32.515625 "></path><path style=" stroke:none;fill-rule:nonzero;fill:rgb(100%,100%,100%);fill-opacity:1;" d="M 100.671875 36.792969 L 109.410156 29.070313 L 110.664063 30.488281 L 101.925781 38.210938 L 100.671875 36.792969 "></path><path style=" stroke:none;fill-rule:nonzero;fill:rgb(100%,100%,100%);fill-opacity:1;" d="M 109.074219 37.839844 C 107.984375 38.585938 107.265625 39.3125 106.914063 40.011719 C 106.566406 40.710938 106.601563 41.363281 107.015625 41.972656 C 107.433594 42.578125 108.03125 42.847656 108.808594 42.773438 C 109.589844 42.703125 110.523438 42.292969 111.613281 41.546875 C 112.71875 40.792969 113.445313 40.0625 113.800781 39.355469 C 114.152344 38.652344 114.121094 37.996094 113.707031 37.390625 C 113.292969 36.78125 112.691406 36.515625 111.90625 36.59375 C 111.121094 36.667969 110.175781 37.085938 109.074219 37.839844 Z M 108 36.261719 C 109.554688 35.195313 110.980469 34.667969 112.269531 34.675781 C 113.558594 34.683594 114.570313 35.226563 115.304688 36.300781 C 116.039063 37.371094 116.179688 38.511719 115.722656 39.71875 C 115.265625 40.925781 114.257813 42.0625 112.699219 43.128906 C 111.152344 44.191406 109.730469 44.714844 108.4375 44.707031 C 107.140625 44.695313 106.125 44.15625 105.390625 43.089844 C 104.660156 42.023438 104.527344 40.882813 104.984375 39.671875 C 105.445313 38.460938 106.449219 37.324219 108 36.261719 "></path><path style=" stroke:none;fill-rule:nonzero;fill:rgb(100%,100%,100%);fill-opacity:1;" d="M 108.683594 47.828125 L 119.234375 42.859375 L 120.09375 44.679688 L 116.019531 49.78125 C 115.703125 50.175781 115.371094 50.554688 115.03125 50.925781 C 114.691406 51.292969 114.339844 51.648438 113.976563 51.992188 C 114.269531 51.800781 114.589844 51.613281 114.9375 51.425781 C 115.28125 51.234375 115.660156 51.046875 116.066406 50.855469 L 121.742188 48.183594 L 122.488281 49.765625 L 111.933594 54.734375 L 111.1875 53.152344 L 115.300781 47.757813 C 115.53125 47.457031 115.824219 47.121094 116.175781 46.746094 C 116.523438 46.371094 116.917969 45.96875 117.355469 45.539063 C 117.085938 45.714844 116.78125 45.894531 116.445313 46.074219 C 116.109375 46.253906 115.714844 46.453125 115.261719 46.664063 L 109.429688 49.410156 L 108.683594 47.828125 "></path><path style=" stroke:none;fill-rule:nonzero;fill:rgb(100%,100%,100%);fill-opacity:1;" d="M 13.824219 81.359375 L 14.75 84.21875 L 19.304688 81.160156 Z M 8.53125 79.507813 L 20.855469 79.257813 L 21.710938 81.894531 L 11.578125 88.914063 L 10.894531 86.800781 L 13.121094 85.3125 L 11.867188 81.4375 L 9.179688 81.515625 L 8.53125 79.507813 "></path><path style=" stroke:none;fill-rule:nonzero;fill:rgb(100%,100%,100%);fill-opacity:1;" d="M 15.820313 92.859375 L 16.429688 93.90625 C 17.039063 94.957031 17.753906 95.554688 18.566406 95.707031 C 19.378906 95.855469 20.390625 95.574219 21.609375 94.867188 C 22.761719 94.195313 23.46875 93.457031 23.730469 92.65625 C 23.988281 91.855469 23.820313 90.941406 23.21875 89.910156 L 22.621094 88.886719 Z M 13.007813 91.917969 L 23.199219 85.972656 L 25.015625 89.089844 C 25.933594 90.664063 26.203125 92.101563 25.816406 93.402344 C 25.433594 94.707031 24.410156 95.84375 22.742188 96.8125 C 21.035156 97.808594 19.519531 98.152344 18.1875 97.84375 C 16.859375 97.535156 15.722656 96.574219 14.78125 94.960938 L 13.007813 91.917969 "></path><path style=" stroke:none;fill-rule:nonzero;fill:rgb(100%,100%,100%);fill-opacity:1;" d="M 19.925781 102.984375 L 28.378906 94.742188 L 30.601563 97.023438 L 27.683594 102.242188 C 27.429688 102.710938 27.164063 103.160156 26.886719 103.578125 C 26.609375 104 26.324219 104.394531 26.03125 104.757813 C 26.414063 104.519531 26.8125 104.285156 27.226563 104.050781 C 27.644531 103.8125 28.117188 103.554688 28.652344 103.277344 L 33.988281 100.496094 L 36.125 102.6875 L 27.671875 110.925781 L 26.339844 109.558594 L 33.429688 102.648438 C 33.042969 102.882813 32.65625 103.109375 32.265625 103.328125 C 31.875 103.546875 31.476563 103.761719 31.074219 103.96875 L 24.347656 107.519531 L 23.214844 106.355469 L 26.976563 99.769531 C 27.371094 99.082031 27.664063 98.582031 27.847656 98.273438 C 28.035156 97.960938 28.207031 97.683594 28.359375 97.449219 L 21.269531 104.359375 L 19.925781 102.984375 "></path><path style=" stroke:none;fill-rule:nonzero;fill:rgb(100%,100%,100%);fill-opacity:1;" d="M 31.609375 113.683594 L 38.308594 103.960938 L 40.152344 105.230469 L 33.453125 114.953125 L 31.609375 113.683594 "></path><path style=" stroke:none;fill-rule:nonzero;fill:rgb(100%,100%,100%);fill-opacity:1;" d="M 37.425781 117.546875 L 42.300781 106.796875 L 44.457031 107.773438 L 45.097656 114.574219 C 45.144531 115.101563 45.171875 115.625 45.179688 116.144531 C 45.1875 116.664063 45.175781 117.179688 45.144531 117.695313 C 45.238281 117.351563 45.351563 116.996094 45.492188 116.621094 C 45.632813 116.246094 45.796875 115.851563 45.984375 115.4375 L 48.609375 109.65625 L 50.484375 110.507813 L 45.609375 121.257813 L 43.734375 120.40625 L 42.890625 113.339844 C 42.851563 112.945313 42.828125 112.480469 42.820313 111.949219 C 42.816406 111.417969 42.824219 110.835938 42.851563 110.203125 C 42.765625 110.519531 42.65625 110.859375 42.515625 111.21875 C 42.378906 111.582031 42.207031 111.992188 41.996094 112.457031 L 39.300781 118.398438 L 37.425781 117.546875 "></path><path style=" stroke:none;fill-rule:nonzero;fill:rgb(100%,100%,100%);fill-opacity:1;" d="M 50.203125 122.546875 L 53.089844 111.101563 L 55.253906 111.648438 L 52.367188 123.09375 L 50.203125 122.546875 "></path><path style=" stroke:none;fill-rule:nonzero;fill:rgb(100%,100%,100%);fill-opacity:1;" d="M 56.390625 121.332031 L 58.46875 120.613281 C 58.726563 121.269531 59.03125 121.753906 59.390625 122.074219 C 59.746094 122.394531 60.183594 122.582031 60.707031 122.625 C 61.296875 122.675781 61.773438 122.582031 62.140625 122.34375 C 62.507813 122.105469 62.710938 121.757813 62.75 121.300781 C 62.78125 120.9375 62.679688 120.621094 62.449219 120.351563 C 62.21875 120.085938 61.785156 119.804688 61.148438 119.503906 C 61.058594 119.460938 60.933594 119.398438 60.773438 119.328125 C 59.65625 118.804688 58.882813 118.378906 58.457031 118.042969 C 58.035156 117.71875 57.722656 117.328125 57.527344 116.863281 C 57.328125 116.402344 57.253906 115.890625 57.300781 115.332031 C 57.386719 114.386719 57.804688 113.648438 58.566406 113.117188 C 59.328125 112.585938 60.28125 112.371094 61.421875 112.46875 C 62.425781 112.558594 63.238281 112.847656 63.867188 113.335938 C 64.496094 113.828125 64.929688 114.511719 65.167969 115.382813 L 63.089844 115.945313 C 62.890625 115.394531 62.628906 114.988281 62.3125 114.71875 C 61.996094 114.445313 61.59375 114.292969 61.097656 114.25 C 60.617188 114.207031 60.230469 114.285156 59.933594 114.484375 C 59.636719 114.683594 59.472656 114.976563 59.4375 115.359375 C 59.386719 115.957031 60.015625 116.578125 61.320313 117.226563 C 61.722656 117.429688 62.039063 117.589844 62.265625 117.710938 C 63.355469 118.289063 64.085938 118.84375 64.449219 119.382813 C 64.816406 119.917969 64.960938 120.589844 64.890625 121.394531 C 64.796875 122.476563 64.367188 123.300781 63.601563 123.859375 C 62.835938 124.417969 61.832031 124.644531 60.589844 124.535156 C 59.511719 124.441406 58.617188 124.125 57.90625 123.585938 C 57.199219 123.042969 56.695313 122.292969 56.390625 121.332031 "></path><path style=" stroke:none;fill-rule:nonzero;fill:rgb(100%,100%,100%);fill-opacity:1;" d="M 70.53125 124.398438 L 69.527344 114.589844 L 66.441406 114.90625 L 66.242188 112.972656 L 74.640625 112.109375 L 74.839844 114.046875 L 71.753906 114.363281 L 72.757813 124.171875 L 70.53125 124.398438 "></path><path style=" stroke:none;fill-rule:nonzero;fill:rgb(100%,100%,100%);fill-opacity:1;" d="M 79.398438 116.117188 L 81.238281 115.535156 C 81.917969 115.320313 82.378906 115.035156 82.617188 114.683594 C 82.859375 114.332031 82.894531 113.882813 82.722656 113.339844 C 82.554688 112.808594 82.269531 112.464844 81.871094 112.3125 C 81.46875 112.160156 80.929688 112.195313 80.25 112.410156 L 78.40625 112.988281 Z M 79.332031 123.121094 L 75.773438 111.863281 L 79.582031 110.660156 C 81.007813 110.210938 82.15625 110.148438 83.027344 110.480469 C 83.898438 110.8125 84.515625 111.546875 84.875 112.6875 C 85.105469 113.417969 85.117188 114.085938 84.914063 114.6875 C 84.710938 115.289063 84.300781 115.789063 83.691406 116.1875 L 87.78125 120.449219 L 85.507813 121.171875 L 81.894531 117.289063 L 79.960938 117.898438 L 81.402344 122.46875 L 79.332031 123.121094 "></path><path style=" stroke:none;fill-rule:nonzero;fill:rgb(100%,100%,100%);fill-opacity:1;" d="M 90.949219 113.855469 L 93.554688 112.367188 L 89.632813 108.523438 Z M 90.210938 119.40625 L 87.453125 107.390625 L 89.863281 106.015625 L 98.792969 114.511719 L 96.867188 115.609375 L 94.957031 113.734375 L 91.417969 115.753906 L 92.039063 118.363281 L 90.210938 119.40625 "></path><path style=" stroke:none;fill-rule:nonzero;fill:rgb(100%,100%,100%);fill-opacity:1;" d="M 102.199219 111.722656 L 95.878906 104.160156 L 93.492188 106.152344 L 92.246094 104.660156 L 98.730469 99.238281 L 99.976563 100.730469 L 97.59375 102.722656 L 103.917969 110.285156 L 102.199219 111.722656 "></path><path style=" stroke:none;fill-rule:nonzero;fill:rgb(100%,100%,100%);fill-opacity:1;" d="M 108.824219 105.5 L 99.949219 97.722656 L 101.417969 96.046875 L 110.296875 103.820313 L 108.824219 105.5 "></path><path style=" stroke:none;fill-rule:nonzero;fill:rgb(100%,100%,100%);fill-opacity:1;" d="M 109.117188 95.746094 C 110.261719 96.441406 111.242188 96.777344 112.0625 96.753906 C 112.886719 96.730469 113.523438 96.347656 113.972656 95.609375 C 114.425781 94.871094 114.472656 94.128906 114.117188 93.386719 C 113.761719 92.644531 113.015625 91.925781 111.871094 91.230469 C 110.722656 90.527344 109.730469 90.1875 108.902344 90.207031 C 108.074219 90.226563 107.433594 90.605469 106.980469 91.347656 C 106.53125 92.085938 106.488281 92.828125 106.847656 93.574219 C 107.210938 94.320313 107.96875 95.042969 109.117188 95.746094 Z M 107.949219 97.675781 C 106.320313 96.679688 105.273438 95.539063 104.8125 94.242188 C 104.347656 92.945313 104.515625 91.640625 105.3125 90.332031 C 106.109375 89.027344 107.191406 88.277344 108.558594 88.09375 C 109.925781 87.910156 111.421875 88.3125 113.050781 89.304688 C 114.667969 90.292969 115.710938 91.441406 116.175781 92.742188 C 116.640625 94.046875 116.476563 95.351563 115.679688 96.65625 C 114.890625 97.953125 113.808594 98.695313 112.433594 98.878906 C 111.0625 99.0625 109.566406 98.664063 107.949219 97.675781 "></path><path style=" stroke:none;fill-rule:nonzero;fill:rgb(100%,100%,100%);fill-opacity:1;" d="M 119.636719 88.882813 L 108.429688 85.160156 L 109.175781 82.910156 L 115.875 81.558594 C 116.394531 81.457031 116.910156 81.375 117.425781 81.3125 C 117.945313 81.25 118.460938 81.207031 118.972656 81.183594 C 118.625 81.128906 118.257813 81.050781 117.867188 80.953125 C 117.480469 80.851563 117.070313 80.726563 116.640625 80.585938 L 110.613281 78.582031 L 111.261719 76.625 L 122.46875 80.347656 L 121.816406 82.304688 L 114.878906 83.882813 C 114.488281 83.964844 114.027344 84.039063 113.503906 84.097656 C 112.976563 84.160156 112.394531 84.210938 111.761719 84.253906 C 112.085938 84.304688 112.433594 84.378906 112.808594 84.480469 C 113.183594 84.578125 113.609375 84.707031 114.089844 84.867188 L 120.285156 86.921875 L 119.636719 88.882813 "></path><path style="fill:none;stroke-width:5.27739;stroke-linecap:butt;stroke-linejoin:miter;stroke:rgb(93.699646%,83.898926%,43.499756%);stroke-opacity:1;stroke-miterlimit:4;" d="M 817.8125 990.735938 C 817.8125 990.735938 460.742188 1063.626563 365.429688 700.110938 C 365.429688 700.110938 322.929688 434.876563 548.867188 311.634375 " transform="matrix(0.1,0,0,-0.1,0,132.39)"></path><path style="fill:none;stroke-width:5.27739;stroke-linecap:butt;stroke-linejoin:miter;stroke:rgb(93.699646%,83.898926%,43.499756%);stroke-opacity:1;stroke-miterlimit:4;" d="M 704.804688 1025.032813 C 704.804688 1025.032813 457.1875 865.970313 492.5 551.86875 C 492.5 551.86875 519.0625 397.884375 619.53125 297.454688 " transform="matrix(0.1,0,0,-0.1,0,132.39)"></path><path style="fill:none;stroke-width:5.27739;stroke-linecap:butt;stroke-linejoin:miter;stroke:rgb(93.699646%,83.898926%,43.499756%);stroke-opacity:1;stroke-miterlimit:4;" d="M 608.398438 1025.15 C 608.398438 1025.15 838.359375 925.384375 838.359375 604.798438 C 838.359375 604.798438 836.796875 434.446875 700.664063 298.314063 " transform="matrix(0.1,0,0,-0.1,0,132.39)"></path><path style="fill:none;stroke-width:5.27739;stroke-linecap:butt;stroke-linejoin:miter;stroke:rgb(93.699646%,83.898926%,43.499756%);stroke-opacity:1;stroke-miterlimit:4;" d="M 485.390625 986.048438 C 485.390625 986.048438 880.703125 1074.2125 961.914063 700.110938 C 961.914063 700.110938 993.046875 510.970313 812.851563 330.775 " transform="matrix(0.1,0,0,-0.1,0,132.39)"></path><path style="fill:none;stroke-width:5.27739;stroke-linecap:butt;stroke-linejoin:miter;stroke:rgb(93.699646%,83.898926%,43.499756%);stroke-opacity:1;stroke-miterlimit:4;" d="M 462.734375 973.040625 C 462.734375 973.040625 442.65625 860.579688 667.109375 860.579688 C 667.109375 860.579688 849.882813 865.892188 877.617188 953.782813 " transform="matrix(0.1,0,0,-0.1,0,132.39)"></path><path style="fill:none;stroke-width:5.27739;stroke-linecap:butt;stroke-linejoin:miter;stroke:rgb(93.699646%,83.898926%,43.499756%);stroke-opacity:1;stroke-miterlimit:4;" d="M 316.953125 800.384375 C 316.953125 800.384375 614.179688 419.173438 995.429688 800.384375 " transform="matrix(0.1,0,0,-0.1,0,132.39)"></path><path style="fill:none;stroke-width:5.27739;stroke-linecap:butt;stroke-linejoin:miter;stroke:rgb(93.699646%,83.898926%,43.499756%);stroke-opacity:1;stroke-miterlimit:4;" d="M 294.6875 602.610938 C 294.6875 602.610938 387.890625 455.4625 660.78125 455.4625 C 660.78125 455.4625 861.796875 437.3375 1016.914063 597.9625 " transform="matrix(0.1,0,0,-0.1,0,132.39)"></path><path style="fill:none;stroke-width:5.27739;stroke-linecap:butt;stroke-linejoin:miter;stroke:rgb(93.699646%,83.898926%,43.499756%);stroke-opacity:1;stroke-miterlimit:4;" d="M 387.421875 413.079688 C 387.421875 413.079688 673.28125 200.423438 931.40625 420.189063 " transform="matrix(0.1,0,0,-0.1,0,132.39)"></path><path style=" stroke:none;fill-rule:nonzero;fill:rgb(84.298706%,68.199158%,2.69928%);fill-opacity:1;" d="M 21.371094 66.386719 L 61.878906 70.890625 L 66.144531 65.671875 Z M 21.371094 66.386719 "></path><path style=" stroke:none;fill-rule:nonzero;fill:rgb(84.298706%,68.199158%,2.69928%);fill-opacity:1;" d="M 66.078125 111.398438 L 66.078125 65.738281 L 110.996094 66.195313 L 70.277344 70.261719 L 66.078125 111.398438 "></path><path style=" stroke:none;fill-rule:nonzero;fill:rgb(84.298706%,68.199158%,2.69928%);fill-opacity:1;" d="M 66.289063 40.246094 L 68.179688 40.246094 L 66.511719 21.0625 Z M 66.289063 40.246094 "></path><path style=" stroke:none;fill-rule:nonzero;fill:rgb(93.699646%,83.898926%,43.499756%);fill-opacity:1;" d="M 66.078125 111.398438 L 61.878906 70.890625 L 66.078125 65.738281 Z M 66.078125 111.398438 "></path><path style=" stroke:none;fill-rule:nonzero;fill:rgb(93.699646%,83.898926%,43.499756%);fill-opacity:1;" d="M 21.371094 66.386719 L 58.957031 61.726563 C 58.957031 61.726563 61.203125 59.351563 57.371094 53.011719 C 57.371094 53.011719 51.757813 46.085938 63.84375 41.125 L 66.511719 21.0625 L 66.289063 40.246094 L 68.179688 40.246094 C 68.179688 40.246094 80.433594 38.394531 92.375 30.425781 C 92.375 30.425781 96.996094 34.253906 80.882813 41.917969 C 80.882813 41.917969 88.105469 39.71875 89.449219 38.375 C 89.449219 38.375 88.015625 43.898438 79.167969 45.878906 C 79.167969 45.878906 82.875 45.867188 87.222656 43.105469 C 87.222656 43.105469 88.808594 46.671875 77.183594 49.578125 L 81.410156 49.046875 C 81.410156 49.046875 82.734375 51.820313 73.488281 54.464844 C 73.488281 54.464844 75.863281 54.332031 77.714844 53.804688 C 77.714844 53.804688 79.035156 57.898438 70.714844 59.351563 C 70.714844 59.351563 77.128906 57.558594 73.023438 61.660156 L 110.996094 66.195313 L 66.078125 65.738281 L 65.296875 65.824219 L 21.371094 66.386719 "></path><path style=" stroke:none;fill-rule:nonzero;fill:rgb(84.298706%,68.199158%,2.69928%);fill-opacity:1;" d="M 60.804688 51.292969 C 60.804688 51.292969 63.671875 42.375 73.882813 43.234375 C 73.882813 43.234375 64.242188 44.820313 60.804688 51.292969 "></path><path style=" stroke:none;fill-rule:nonzero;fill:rgb(84.298706%,68.199158%,2.69928%);fill-opacity:1;" d="M 61.597656 53.667969 C 61.597656 53.667969 64.308594 47.132813 71.242188 47.859375 C 71.242188 47.859375 67.34375 47.925781 61.597656 53.667969 "></path><path style=" stroke:none;fill-rule:nonzero;fill:rgb(84.298706%,68.199158%,2.69928%);fill-opacity:1;" d="M 62.785156 56.046875 C 62.785156 56.046875 63.84375 51.691406 69.128906 51.691406 C 69.128906 51.691406 65.976563 52.355469 62.785156 56.046875 "></path></g></svg>