<svg xmlns="http://www.w3.org/2000/svg" width="660.000000pt" height="656.000000pt" viewBox="0 0 660.000000 656.000000" preserveAspectRatio="xMidYMid meet"><metadata>
Created by potrace 1.16, written by Peter Selinger 2001-2019
</metadata><g transform="translate(0.000000,656.000000) scale(0.100000,-0.100000)" fill="#000000" stroke="none"><path d="M750 3280 l0 -3280 2550 0 2550 0 0 1281 c0 1216 -1 1281 -17 1276 -642 -190 -1245 -213 -1913 -72 -475 101 -884 291 -1225 572 -130 107 -340 320 -446 453 -409 515 -586 951 -661 1625 -17 157 -17 726 0 895 16 153 59 454 71 498 l10 32 -460 0 -459 0 0 -3280z m638 -1821 c45 -22 102 -89 102 -119 0 -12 -11 -20 -32 -24 -18 -4 -34 -3 -35 1 -12 34 -49 77 -78 89 -49 20 -95 17 -145 -9 -60 -31 -84 -80 -88 -180 -4 -67 -1 -84 21 -130 43 -86 125 -117 210 -79 44 20 58 37 93 120 0 1 15 -3 33 -9 28 -10 32 -15 26 -38 -36 -146 -256 -202 -375 -95 -58 53 -84 122 -84 224 1 93 14 135 61 190 63 75 200 103 291 59z m1082 -254 l0 -265 -35 0 -35 0 0 265 0 265 35 0 35 0 0 -265z m563 253 c110 -266 207 -504 207 -510 0 -5 -17 -8 -38 -8 l-39 0 -30 78 -30 77 -111 3 -110 3 -18 -48 c-42 -116 -40 -113 -79 -113 -33 0 -36 2 -29 23 5 17 136 361 185 485 7 18 16 22 48 22 22 0 41 -6 44 -12z m1427 -128 c27 0 30 -3 30 -30 0 -27 -3 -30 -30 -30 l-31 0 3 -132 3 -133 30 -5 c24 -4 31 -11 33 -32 3 -22 -2 -29 -22 -34 -37 -9 -91 13 -105 42 -6 15 -11 79 -11 159 0 131 0 134 -22 137 -17 2 -23 10 -23 28 0 18 6 26 23 28 19 3 22 9 22 48 0 39 4 47 33 64 l32 20 3 -65 c3 -65 3 -65 32 -65z m-328 -4 c24 -4 46 -17 62 -37 25 -29 26 -35 26 -164 0 -74 4 -145 10 -159 9 -25 8 -26 -26 -26 -27 0 -37 5 -41 20 -3 11 -6 20 -7 20 0 0 -23 -11 -50 -25 -87 -44 -179 -26 -211 42 -22 46 -7 103 33 132 22 15 170 51 215 51 9 0 9 51 -1 67 -10 15 -57 33 -87 33 -36 0 -72 -19 -84 -46 -14 -31 -71 -35 -71 -5 0 22 34 67 63 83 25 13 94 27 117 23 8 -2 32 -6 52 -9z m913 -22 c41 -27 67 -79 72 -148 9 -104 -25 -172 -101 -207 -96 -44 -203 -5 -242 88 -32 75 -9 210 45 257 49 44 166 49 226 10z m-3365 -169 l0 -195 -35 0 -35 0 0 188 c0 104 3 192 7 195 3 4 19 7 35 7 l28 0 0 -195z m211 43 c47 -133 55 -150 62 -128 5 14 30 82 56 150 45 123 47 125 79 128 17 2 32 0 32 -5 0 -4 -32 -92 -71 -195 l-72 -188 -32 0 -31 0 -72 189 c-40 103 -72 191 -72 195 0 3 15 6 34 6 l34 0 53 -152z m387 -45 l2 -193 -35 0 -35 0 0 196 0 195 33 -3 32 -3 3 -192z m1086 125 c14 -40 39 -108 54 -151 l29 -78 54 148 c54 147 54 148 87 151 17 2 32 -1 32 -7 0 -5 -23 -69 -51 -143 -28 -73 -60 -157 -71 -185 -18 -49 -22 -53 -51 -53 l-32 0 -69 183 c-38 100 -71 188 -74 195 -3 8 7 12 31 12 34 0 35 -1 61 -72z m414 -125 l2 -193 -35 0 -35 0 0 196 0 195 33 -3 32 -3 3 -192z m872 2 l0 -195 -30 0 -30 0 0 195 0 195 30 0 30 0 0 -195z m641 165 c4 -14 7 -20 8 -15 4 39 144 61 189 29 45 -31 52 -63 52 -224 l0 -150 -35 0 -35 0 0 143 c0 155 -7 179 -55 191 -14 4 -40 0 -60 -8 -53 -22 -65 -61 -65 -206 l0 -121 -32 3 -33 3 -3 180 c-1 98 0 185 3 193 9 24 58 10 66 -18z m-2652 -701 c57 -139 105 -258 108 -266 4 -11 -3 -14 -37 -11 l-42 3 -30 78 -30 78 -111 -3 -111 -3 -27 -73 c-15 -41 -30 -76 -32 -79 -3 -2 -20 -3 -39 -1 l-34 3 100 262 101 263 41 0 41 0 102 -251z m1001 161 l0 -91 30 23 c37 27 110 29 156 5 49 -26 59 -63 59 -227 l0 -145 -32 -3 -33 -3 0 136 c0 154 -10 189 -59 200 -40 9 -99 -18 -111 -50 -6 -15 -10 -85 -10 -156 l0 -129 -35 0 -35 0 0 265 0 265 35 0 35 0 0 -90z m-217 -52 c27 -2 32 -7 32 -28 0 -21 -5 -26 -32 -28 l-33 -3 0 -119 c0 -65 3 -125 6 -134 4 -9 18 -16 34 -16 23 0 28 -5 32 -30 5 -32 -2 -36 -67 -31 -61 5 -69 25 -73 186 -4 134 -6 145 -23 145 -14 0 -19 7 -19 30 0 23 4 30 20 30 17 0 20 7 20 44 0 39 4 46 33 65 l32 20 3 -64 3 -64 32 -3z m1700 0 c26 -2 32 -7 32 -28 0 -21 -6 -26 -33 -28 l-33 -3 3 -132 3 -132 33 -3 c28 -3 32 -7 32 -33 0 -23 -5 -29 -22 -31 -47 -3 -74 4 -93 23 -18 17 -20 35 -23 164 -3 139 -4 144 -25 147 -32 4 -31 52 1 56 19 3 22 9 22 48 0 39 4 47 33 64 l32 20 3 -64 c3 -65 3 -65 35 -68z m-841 -14 c34 -17 64 -56 79 -101 17 -52 7 -168 -18 -201 -28 -37 -79 -70 -121 -78 -46 -9 -120 11 -151 39 -85 78 -79 265 10 330 52 37 140 42 201 11z m412 5 c5 -4 6 -20 2 -34 -6 -24 -10 -26 -40 -21 -72 14 -95 -40 -96 -216 l0 -108 -30 0 -30 0 0 196 0 195 28 -3 c20 -2 28 -9 30 -27 l4 -23 15 22 c26 36 87 47 117 19z m-1774 -147 c4 -137 7 -155 24 -168 30 -22 81 -17 113 10 28 24 28 26 33 168 l5 143 33 3 32 3 0 -195 0 -196 -30 0 c-26 0 -30 4 -30 27 l0 26 -22 -20 c-52 -47 -104 -55 -164 -27 -57 27 -64 53 -64 229 l0 156 33 -3 32 -3 5 -153z m1940 -38 l0 -195 -32 3 -33 3 -3 180 c-1 98 0 185 2 192 3 7 19 13 36 13 l30 0 0 -196z m491 56 c27 -74 49 -141 49 -149 0 -30 15 3 65 142 50 140 51 142 83 145 18 2 32 -1 32 -6 0 -18 -170 -462 -186 -487 -24 -36 -69 -58 -105 -50 -24 5 -29 12 -29 36 0 27 3 29 35 29 29 0 39 6 55 33 11 17 20 41 20 53 0 11 -31 103 -70 205 -38 101 -70 185 -70 187 0 2 16 2 36 0 l37 -3 48 -135z"></path><path d="M2980 1387 c0 -10 -17 -64 -39 -122 l-38 -105 88 0 88 0 -26 68 c-14 37 -32 87 -40 112 -18 51 -33 73 -33 47z"></path><path d="M4057 1110 c-85 -18 -99 -29 -95 -75 4 -38 43 -59 94 -49 56 10 85 42 91 97 3 26 2 46 -3 46 -5 -1 -44 -9 -87 -19z"></path><path d="M4884 1261 c-42 -26 -57 -67 -52 -147 4 -60 7 -70 36 -95 38 -34 93 -39 131 -13 72 51 66 220 -10 259 -38 20 -68 19 -105 -4z"></path><path d="M2455 667 c-22 -62 -41 -115 -43 -119 -2 -5 35 -8 82 -8 47 0 86 4 86 9 0 7 -79 223 -83 228 -1 1 -20 -49 -42 -110z"></path><path d="M4134 641 c-37 -22 -54 -65 -54 -133 0 -85 42 -138 110 -138 68 0 110 53 110 140 0 66 -21 115 -59 134 -40 21 -69 20 -107 -3z"></path><path d="M3551 6466 c-347 -461 -549 -988 -568 -1476 -27 -733 348 -1363 1120 -1881 166 -111 239 -150 377 -202 270 -101 617 -152 1113 -164 l257 -6 0 1911 0 1912 -1114 0 -1115 0 -70 -94z"></path></g></svg>