<svg xmlns="http://www.w3.org/2000/svg" height="800" width="1200" viewBox="-32.0001 -68.83325 277.3342 412.9995"><g fill="#213381"><path d="M120.667 0s-75.334 84.887 24 147.333c15.447 9.711 37.672 12.331 68.667 12.331V0z"></path><path d="M0 275.333V0h38S22.824 66.478 50.667 111.333c30 48.332 67.033 59.667 106.667 63 0 0 27 2.667 56-7v108H0z"></path></g><path d="M28.525 227.219l2.937.741c-.616 2.412-1.723 4.252-3.322 5.518-1.6 1.267-3.555 1.9-5.866 1.9-2.392 0-4.336-.487-5.835-1.461-1.498-.974-2.639-2.385-3.421-4.23-.782-1.848-1.173-3.83-1.173-5.949 0-2.311.441-4.326 1.324-6.047s2.14-3.027 3.77-3.921c1.629-.893 3.423-1.339 5.381-1.339 2.22 0 4.087.564 5.601 1.695 1.514 1.13 2.568 2.719 3.164 4.768l-2.891.682c-.515-1.615-1.262-2.791-2.24-3.527-.979-.736-2.21-1.105-3.693-1.105-1.706 0-3.131.409-4.276 1.227-1.145.817-1.95 1.915-2.414 3.292a13.263 13.263 0 00-.696 4.261c0 1.888.275 3.535.825 4.942.55 1.408 1.405 2.46 2.565 3.156a7.197 7.197 0 003.769 1.044c1.645 0 3.037-.474 4.178-1.422 1.137-.95 1.909-2.358 2.313-4.225zm7.492-11.276v-3.134h2.725v3.134zm0 19.057v-16.075h2.725V235zm12.608 0l-6.115-16.075h2.876l3.451 9.627a47.126 47.126 0 011.029 3.239c.242-.848.58-1.867 1.014-3.058l3.572-9.809h2.8L51.168 235zm12.321-19.057v-3.134h2.725v3.134zm0 19.057v-16.075h2.725V235zm8.083 0v-22.19h2.725V235zm14.303 0l8.522-22.19h3.164L104.1 235h-3.345l-2.588-6.721h-9.279L86.45 235zm6.403-9.113h7.523l-2.316-6.146c-.707-1.867-1.231-3.4-1.574-4.602a28.27 28.27 0 01-1.196 4.238zM111.274 235l-6.115-16.075h2.876l3.451 9.627a47.126 47.126 0 011.029 3.239c.242-.848.58-1.867 1.014-3.058l3.572-9.809h2.8L113.817 235zm12.321-19.057v-3.134h2.725v3.134zm0 19.057v-16.075h2.725V235zm18.633-1.983c-1.009.857-1.98 1.463-2.914 1.816a8.43 8.43 0 01-3.005.529c-1.766 0-3.124-.432-4.072-1.294-.949-.863-1.423-1.966-1.423-3.308 0-.787.179-1.506.538-2.157a4.447 4.447 0 011.407-1.566 6.654 6.654 0 011.96-.894c.535-.141 1.342-.277 2.422-.408 2.2-.263 3.819-.575 4.859-.938.01-.373.015-.61.015-.712 0-1.109-.257-1.892-.772-2.346-.696-.615-1.731-.924-3.103-.924-1.282 0-2.228.226-2.838.674-.61.449-1.062 1.244-1.354 2.385l-2.664-.363c.242-1.141.641-2.062 1.196-2.763.555-.701 1.357-1.241 2.407-1.62 1.049-.378 2.265-.567 3.648-.567 1.372 0 2.487.161 3.345.484.857.323 1.488.729 1.892 1.219.403.489.686 1.107.848 1.854.091.464.136 1.301.136 2.512v3.633c0 2.533.058 4.136.174 4.807a6.07 6.07 0 00.689 1.93h-2.846c-.283-.566-.465-1.227-.545-1.983zm-.228-6.086c-.989.404-2.473.747-4.45 1.029-1.12.162-1.913.344-2.376.545a2.375 2.375 0 00-1.075.886 2.33 2.33 0 00-.378 1.294c0 .727.275 1.332.825 1.816.55.484 1.355.727 2.415.727 1.049 0 1.983-.229 2.8-.688.817-.459 1.417-1.087 1.801-1.884.292-.616.439-1.524.439-2.725v-1zm14.198 5.631l.394 2.407c-.767.161-1.453.242-2.059.242-.989 0-1.756-.156-2.301-.47-.545-.313-.929-.724-1.15-1.233-.222-.509-.333-1.581-.333-3.216v-9.249h-1.998v-2.119h1.998v-3.981l2.709-1.635v5.616h2.74v2.119h-2.74v9.399c0 .777.048 1.277.144 1.499.096.222.252.398.47.53.217.131.527.196.931.196.302.001.701-.034 1.195-.105zm3.95-16.619v-3.134h2.725v3.134zm0 19.057v-16.075h2.725V235zm7.129-8.038c0-2.978.827-5.183 2.482-6.615 1.382-1.19 3.067-1.786 5.056-1.786 2.21 0 4.016.725 5.419 2.172 1.402 1.448 2.104 3.449 2.104 6.002 0 2.068-.311 3.696-.931 4.882a6.59 6.59 0 01-2.71 2.762c-1.186.656-2.48.984-3.882.984-2.25 0-4.069-.722-5.457-2.164-1.387-1.444-2.081-3.523-2.081-6.237zm2.801 0c0 2.059.449 3.6 1.347 4.624.898 1.024 2.028 1.536 3.391 1.536 1.352 0 2.477-.515 3.375-1.544.898-1.029 1.347-2.599 1.347-4.708 0-1.987-.452-3.493-1.355-4.518-.903-1.024-2.026-1.537-3.368-1.537-1.362 0-2.493.51-3.391 1.529-.898 1.021-1.346 2.56-1.346 4.618zM186.803 235v-16.075h2.452v2.286c1.181-1.767 2.886-2.649 5.116-2.649.969 0 1.859.174 2.672.522.812.348 1.42.805 1.824 1.369.403.565.686 1.236.848 2.014.101.505.151 1.388.151 2.648V235h-2.725v-9.778c0-1.11-.106-1.939-.318-2.49-.212-.55-.588-.988-1.128-1.316-.54-.328-1.173-.492-1.899-.492-1.161 0-2.162.368-3.005 1.104-.842.737-1.264 2.135-1.264 4.193V235zM62.756 260.833l8.522-22.19h3.164l9.082 22.19h-3.345l-2.588-6.721h-9.279l-2.437 6.721zm6.403-9.112h7.523l-2.316-6.146c-.707-1.867-1.231-3.4-1.574-4.602a28.27 28.27 0 01-1.196 4.238zm29.006 9.112v-2.361c-1.251 1.816-2.952 2.725-5.101 2.725a6.5 6.5 0 01-2.656-.545c-.823-.363-1.433-.819-1.832-1.37-.398-.55-.679-1.224-.84-2.021-.111-.535-.167-1.383-.167-2.543v-9.96h2.725v8.915c0 1.424.055 2.382.167 2.877.171.716.535 1.278 1.09 1.688.555.408 1.241.613 2.059.613.818 0 1.584-.21 2.301-.629.716-.418 1.224-.988 1.521-1.71.297-.722.446-1.769.446-3.142v-8.612h2.725v16.075zm14.762-2.437l.394 2.407c-.767.161-1.453.242-2.059.242-.989 0-1.756-.156-2.301-.47-.545-.313-.929-.724-1.15-1.233-.222-.509-.333-1.581-.333-3.216v-9.249h-1.998v-2.119h1.998v-3.981l2.709-1.635v5.616h2.74v2.119h-2.74v9.399c0 .777.048 1.277.144 1.499.096.222.252.398.469.53.217.131.527.196.931.196.303.001.702-.034 1.196-.105zm4.773 2.437v-22.19h2.725v7.962c1.271-1.474 2.876-2.21 4.813-2.21 1.19 0 2.225.234 3.103.704.878.469 1.506 1.117 1.884 1.945.379.827.568 2.027.568 3.602v10.188h-2.725v-10.188c0-1.361-.295-2.354-.885-2.974-.591-.621-1.426-.931-2.505-.931-.808 0-1.567.209-2.278.628-.712.419-1.219.986-1.521 1.702-.303.717-.454 1.706-.454 2.967v8.795zm18.334-8.037c0-2.978.827-5.183 2.482-6.615 1.382-1.19 3.067-1.786 5.056-1.786 2.21 0 4.016.725 5.419 2.172 1.402 1.448 2.104 3.449 2.104 6.002 0 2.068-.311 3.696-.931 4.882a6.59 6.59 0 01-2.71 2.762c-1.186.656-2.48.984-3.882.984-2.25 0-4.069-.722-5.457-2.164-1.387-1.444-2.081-3.523-2.081-6.237zm2.8 0c0 2.059.449 3.6 1.347 4.624.898 1.024 2.028 1.536 3.391 1.536 1.352 0 2.477-.515 3.375-1.544.898-1.029 1.347-2.599 1.347-4.708 0-1.987-.452-3.493-1.355-4.518-.903-1.024-2.026-1.537-3.368-1.537-1.362 0-2.493.51-3.391 1.529-.897 1.021-1.346 2.56-1.346 4.618zm17.533 8.037v-16.075h2.452v2.437c.625-1.14 1.203-1.892 1.733-2.255a3.024 3.024 0 011.748-.545c.918 0 1.852.293 2.8.878l-.938 2.527c-.666-.393-1.332-.59-1.998-.59-.596 0-1.13.18-1.604.537-.475.358-.813.855-1.014 1.491-.303.969-.454 2.028-.454 3.179v8.416zm12.476-19.056v-3.134h2.725v3.134zm0 19.056v-16.075h2.725v16.075zm14.929-2.437l.394 2.407c-.767.161-1.453.242-2.059.242-.989 0-1.756-.156-2.301-.47-.545-.313-.929-.724-1.15-1.233-.222-.509-.333-1.581-.333-3.216v-9.249h-1.998v-2.119h1.998v-3.981l2.709-1.635v5.616h2.74v2.119h-2.74v9.399c0 .777.048 1.277.145 1.499.096.222.252.398.469.53.217.131.527.196.932.196.301.001.7-.034 1.194-.105zm4.65 8.629l-.303-2.559c.596.161 1.115.242 1.56.242.605 0 1.09-.101 1.453-.303.363-.202.661-.484.894-.848.171-.272.448-.948.832-2.028.051-.151.131-.373.242-.666l-6.1-16.105h2.936l3.346 9.31a41.58 41.58 0 011.166 3.723 36.886 36.886 0 011.119-3.662l3.437-9.37h2.725l-6.115 16.348c-.656 1.766-1.165 2.981-1.528 3.647-.484.898-1.04 1.557-1.666 1.976-.625.419-1.372.628-2.24.628-.526-.001-1.111-.111-1.758-.333z" fill="#FFF"></path></svg>