<svg xmlns="http://www.w3.org/2000/svg" width="660.000000pt" height="656.000000pt" viewBox="0 0 660.000000 656.000000" preserveAspectRatio="xMidYMid meet"><metadata>
Created by potrace 1.16, written by Peter Selinger 2001-2019
</metadata><g transform="translate(0.000000,656.000000) scale(0.100000,-0.100000)" fill="#000000" stroke="none"><path d="M3035 6544 c-16 -2 -91 -11 -165 -20 -214 -25 -520 -103 -771 -198 -74 -28 -324 -147 -414 -199 -361 -203 -683 -484 -984 -857 -53 -66 -192 -277 -255 -388 -63 -112 -156 -305 -188 -392 -141 -380 -202 -661 -228 -1060 -12 -173 -8 -281 21 -545 104 -947 638 -1815 1449 -2352 376 -249 820 -425 1245 -493 72 -12 132 -26 133 -31 5 -12 849 -12 854 0 2 5 62 19 133 31 486 81 953 276 1360 569 253 183 565 489 723 711 137 193 216 323 310 515 199 405 306 821 330 1294 28 532 -92 1110 -331 1589 -144 287 -273 480 -487 727 -498 573 -1226 967 -1995 1077 -108 15 -205 21 -425 23 -157 2 -298 1 -315 -1z m487 -115 c565 -39 1114 -229 1578 -548 223 -153 511 -419 675 -626 325 -407 546 -885 639 -1380 49 -260 51 -279 51 -600 -1 -320 -2 -343 -51 -602 -167 -892 -736 -1687 -1534 -2145 -541 -311 -1179 -455 -1805 -409 -194 15 -248 22 -434 62 -476 102 -936 322 -1326 636 -333 268 -637 645 -828 1028 -310 620 -410 1281 -297 1953 69 410 210 785 430 1142 240 390 613 766 1002 1010 572 357 1238 525 1900 479z"></path><path d="M2990 6289 c-379 -39 -806 -173 -1135 -357 -770 -428 -1299 -1128 -1499 -1982 -56 -237 -70 -373 -70 -675 0 -294 13 -425 65 -660 121 -548 412 -1076 813 -1479 573 -574 1327 -888 2131 -888 386 0 700 53 1041 177 465 168 848 422 1193 789 755 805 1007 1983 650 3034 -113 331 -279 636 -497 912 -92 117 -367 393 -482 484 -455 360 -1017 589 -1589 646 -121 12 -499 11 -621 -1z m676 -262 c3 -3 124 -455 124 -461 0 -8 -38 -8 -66 0 -16 4 -24 19 -34 60 -7 30 -18 58 -25 64 -6 5 -47 10 -90 12 l-80 3 -28 -52 c-24 -45 -33 -53 -57 -53 -16 0 -32 4 -35 10 -3 5 44 105 106 221 l112 211 36 -7 c20 -4 37 -8 37 -8z m-902 -219 c21 -101 40 -186 42 -189 2 -4 43 2 91 12 49 9 91 15 95 11 3 -4 8 -18 10 -32 3 -24 -1 -25 -126 -53 -71 -15 -132 -24 -136 -20 -7 8 -90 407 -90 430 0 10 12 14 66 22 6 0 27 -77 48 -181z m1203 171 l31 -10 7 -112 c4 -62 10 -141 14 -176 l6 -64 104 141 c103 140 103 140 135 131 17 -5 33 -9 35 -9 10 0 -20 -44 -144 -209 -128 -172 -138 -182 -163 -176 -15 3 -32 12 -38 20 -6 8 -16 108 -23 222 -6 114 -14 218 -17 231 -5 25 7 28 53 11z m-1499 -288 c89 -93 162 -174 162 -179 0 -6 -16 -16 -36 -22 -35 -12 -37 -11 -83 34 l-46 46 -78 -32 -77 -32 0 -67 c0 -66 0 -67 -32 -78 -17 -6 -32 -10 -33 -9 -1 2 -5 110 -9 240 l-6 237 27 15 c16 8 33 15 39 16 5 0 83 -76 172 -169z m2032 94 l29 -15 -96 -202 c-52 -112 -96 -204 -98 -206 -2 -2 -19 5 -39 15 l-36 19 95 199 c52 109 95 200 95 202 0 7 23 2 50 -12z m-2561 -191 c40 -33 58 -90 42 -134 -6 -18 -9 -35 -6 -39 2 -4 50 -24 107 -46 57 -21 107 -41 111 -45 4 -4 -10 -19 -32 -33 l-41 -27 -96 40 c-145 60 -159 53 -90 -51 25 -38 46 -72 46 -77 0 -13 -61 -45 -70 -36 -22 24 -233 350 -234 361 -1 7 33 35 74 63 90 60 139 67 189 24z m2934 -26 l25 -23 -52 -227 c-29 -125 -55 -230 -58 -234 -4 -3 -21 5 -38 18 -27 19 -31 27 -25 53 21 106 24 97 -53 149 l-69 48 -53 -38 c-50 -36 -53 -37 -79 -21 -14 9 -26 20 -26 26 0 12 374 270 392 271 7 0 23 -10 36 -22z m-1553 -533 c0 -261 4 -475 8 -475 16 0 235 50 240 55 6 6 -85 110 -143 164 l-45 42 -7 91 -6 90 39 34 39 33 -41 1 c-47 0 -47 0 -59 135 -3 39 -8 80 -11 93 -4 21 -2 22 64 22 304 0 728 -132 1007 -314 47 -31 91 -56 97 -56 6 0 37 18 70 40 33 22 63 40 65 40 13 0 -8 -86 -26 -111 -12 -16 -21 -32 -21 -37 0 -4 32 -35 71 -67 87 -73 180 -171 270 -288 243 -314 385 -681 422 -1092 9 -102 15 -130 27 -132 8 -1 50 -5 93 -8 42 -4 77 -11 77 -16 0 -5 -448 -9 -1115 -9 l-1115 0 -1 -1092 c-1 -601 -4 -1104 -9 -1118 -10 -34 -17 -13 -24 79 -4 41 -8 76 -9 77 -1 1 -63 7 -137 13 -265 23 -491 86 -725 200 -235 115 -394 231 -576 417 -263 271 -443 598 -528 964 -25 106 -51 301 -51 382 l0 61 88 -7 c48 -4 103 -11 122 -15 l35 -7 5 -80 c5 -72 10 -88 48 -152 24 -40 71 -102 105 -139 66 -71 176 -167 184 -160 2 3 -3 35 -12 73 -26 119 -45 266 -45 358 0 76 2 87 16 82 9 -3 21 -6 28 -6 8 0 16 -46 24 -147 12 -142 32 -255 67 -375 l16 -57 137 -69 c124 -62 394 -162 437 -162 10 0 15 5 12 13 -72 189 -136 523 -137 715 0 32 2 33 33 30 32 -3 32 -3 34 -63 5 -114 24 -260 50 -375 29 -132 88 -319 108 -338 24 -26 544 -97 563 -77 3 3 -9 183 -28 401 l-34 395 90 90 89 89 -1115 0 c-730 0 -1111 3 -1104 10 5 5 48 13 94 17 l85 8 2 40 c31 481 185 884 474 1237 321 392 799 656 1307 723 62 8 141 15 176 15 63 0 64 0 70 31 3 17 6 53 6 79 0 53 7 80 21 80 5 0 9 -203 9 -475z m1995 163 c69 -66 69 -67 51 -87 -27 -29 -36 -27 -86 24 -24 25 -49 45 -56 45 -6 0 -66 -58 -134 -130 -67 -71 -127 -130 -134 -130 -7 0 -23 11 -36 25 l-23 25 131 134 c73 74 132 139 132 144 0 6 -23 31 -52 56 l-52 45 24 26 24 26 70 -69 c39 -37 102 -98 141 -134z m-3779 161 c18 -20 18 -21 -44 -81 l-62 -60 33 -39 c17 -21 37 -39 42 -39 6 0 31 20 55 45 50 51 59 53 86 24 18 -20 18 -21 -34 -71 -28 -27 -52 -53 -52 -57 0 -4 20 -27 45 -51 l45 -44 63 62 c34 34 67 62 71 62 11 0 46 -30 46 -39 0 -4 -44 -48 -99 -98 l-99 -92 -156 164 -156 164 87 85 c49 47 93 86 99 86 6 0 19 -9 30 -21z m3968 -385 c10 -14 16 -29 14 -34 -4 -11 -338 -270 -349 -270 -4 0 -17 13 -29 30 l-21 29 58 45 c32 25 110 85 173 135 63 49 120 90 126 90 7 1 19 -11 28 -25z m-4198 -3 c123 -56 192 -186 153 -288 -13 -35 -119 -183 -131 -183 -15 0 -358 250 -358 261 0 14 107 160 134 182 57 49 133 59 202 28z m4349 -270 c99 -45 151 -169 111 -265 -44 -106 -198 -185 -305 -156 -118 31 -187 182 -132 288 60 116 220 181 326 133z m-4770 -143 c32 -14 31 -22 -5 -100 -16 -34 -30 -68 -30 -74 0 -6 22 -21 50 -32 l49 -21 32 69 32 69 29 -15 c16 -8 27 -21 25 -27 -3 -7 -17 -37 -30 -68 l-26 -57 60 -27 c33 -15 62 -25 64 -23 1 1 20 40 40 86 21 45 40 82 42 82 5 0 46 -21 52 -26 8 -7 -103 -244 -115 -244 -11 0 -390 173 -400 183 -4 4 96 237 103 237 1 0 14 -5 28 -12z m5047 -376 c8 -31 4 -37 -107 -164 -63 -72 -114 -133 -112 -135 3 -2 66 15 142 37 76 22 139 39 140 38 1 -2 7 -18 13 -35 l11 -33 -67 -20 c-37 -11 -134 -40 -217 -64 l-150 -44 -12 27 c-7 14 -12 31 -13 36 0 6 52 70 116 143 64 74 114 135 112 137 -2 2 -66 -14 -142 -36 -75 -23 -140 -39 -142 -36 -3 2 -9 18 -14 35 -8 30 -7 32 28 42 20 5 111 32 202 59 91 27 174 49 184 48 13 -1 23 -13 28 -35z m-5194 -57 c2 -2 -6 -40 -18 -85 -13 -44 -20 -83 -17 -86 3 -3 28 -11 57 -19 51 -13 51 -13 61 11 5 14 9 28 9 32 0 4 5 24 11 45 8 30 15 37 35 37 35 0 39 -22 20 -92 -9 -33 -15 -62 -14 -63 2 -2 44 -14 93 -28 83 -23 90 -26 87 -48 -4 -38 -10 -49 -29 -49 -19 0 -412 106 -419 112 -2 2 11 59 29 126 l32 123 30 -7 c16 -3 31 -8 33 -9z m48 -720 l17 -54 66 -3 66 -3 -35 -22 c-74 -48 -72 -44 -54 -103 8 -28 13 -54 10 -57 -3 -3 -23 9 -44 26 -22 17 -43 31 -47 31 -4 0 -29 -16 -56 -36 -54 -39 -56 -37 -34 26 22 61 20 66 -32 102 l-48 33 64 5 64 5 14 40 c20 61 22 65 27 65 3 0 13 -25 22 -55z m5089 0 l16 -55 62 0 62 -1 -23 -19 c-13 -11 -35 -28 -49 -38 l-26 -19 18 -52 c9 -29 15 -55 11 -58 -3 -3 -23 9 -44 26 -22 17 -44 31 -49 31 -5 0 -28 -14 -51 -31 -24 -17 -45 -30 -47 -27 -2 2 3 28 12 58 17 60 22 50 -53 107 l-29 22 62 0 62 1 17 55 c10 30 21 55 25 55 4 0 15 -25 24 -55z m-519 -258 c-48 -744 -492 -1403 -1161 -1723 -144 -69 -321 -129 -470 -159 -120 -25 -381 -53 -391 -42 -6 6 15 237 22 249 3 5 29 8 58 8 52 0 53 0 104 64 29 35 52 67 52 71 0 4 -45 5 -100 1 l-100 -7 0 34 0 34 127 7 c73 4 133 12 141 18 58 49 357 566 338 585 -2 3 -42 -2 -88 -11 -115 -22 -330 -46 -405 -46 -61 0 -63 1 -63 25 0 14 6 28 13 30 6 2 73 9 147 15 133 11 328 41 401 60 37 10 38 12 73 118 67 204 97 359 111 570 l7 102 30 0 31 0 -7 -102 c-14 -208 -52 -407 -110 -577 -14 -41 -24 -77 -21 -80 8 -8 281 86 370 128 161 74 205 101 215 127 38 98 76 317 83 468 3 77 4 80 30 87 14 4 28 4 31 1 18 -17 -5 -265 -38 -413 -13 -55 -20 -99 -17 -99 18 0 177 149 226 212 81 103 92 130 100 235 l7 92 67 6 c36 3 73 8 81 9 8 2 37 4 64 5 l49 1 -7 -103z m-4501 -542 c132 -9 243 -19 247 -23 4 -4 10 -21 14 -38 6 -29 -1 -36 -173 -179 -98 -81 -186 -155 -195 -163 -16 -13 -18 -12 -26 9 -24 62 -23 62 28 104 27 22 49 46 50 53 0 7 -12 49 -26 92 l-25 80 -69 0 c-67 0 -68 0 -79 31 -14 41 -14 49 2 49 6 0 120 -7 252 -15z m4896 -81 c246 -96 230 -87 217 -124 -5 -17 -18 -34 -27 -39 -9 -4 -94 -23 -188 -42 -95 -18 -169 -36 -165 -40 4 -4 68 -31 142 -60 74 -28 137 -53 138 -55 5 -3 -18 -74 -23 -74 -6 0 -439 171 -442 174 -2 2 3 19 12 39 16 39 -3 33 248 83 76 15 134 30 130 34 -4 4 -69 31 -143 60 -74 29 -137 54 -139 56 -8 7 22 64 34 64 7 0 100 -34 206 -76z m-4470 -360 c84 -140 94 -206 43 -286 -45 -71 -152 -128 -237 -128 -52 0 -113 28 -148 66 -26 30 -119 179 -119 192 0 7 389 241 402 242 4 0 30 -39 59 -86z m4190 -99 c107 -37 199 -147 199 -239 -1 -76 -57 -168 -125 -204 -47 -24 -141 -21 -200 8 -76 37 -141 107 -160 174 -15 51 -15 61 -1 109 39 131 159 195 287 152z m-3923 -288 l32 -33 -74 -155 c-40 -85 -70 -155 -66 -157 4 -1 74 29 156 67 l149 69 35 -34 35 -34 -165 -165 c-91 -91 -170 -165 -176 -165 -6 0 -21 12 -35 26 l-24 25 110 104 c61 58 106 105 100 105 -5 0 -65 -25 -133 -56 l-123 -57 -29 28 -28 27 59 125 c32 69 59 128 59 131 0 4 -47 -40 -105 -98 l-105 -105 -27 28 -28 27 165 165 c91 91 170 165 175 165 6 0 26 -15 43 -33z m3638 -234 c90 -87 164 -163 164 -169 0 -6 -11 -21 -25 -34 l-24 -23 -33 28 c-53 45 -308 294 -308 302 0 10 42 53 53 53 5 0 82 -71 173 -157z m-276 -34 c0 -4 -27 -29 -60 -54 -42 -32 -58 -51 -52 -58 60 -77 212 -277 222 -294 13 -19 11 -24 -11 -42 -13 -11 -29 -20 -36 -21 -7 0 -65 70 -130 155 -64 85 -120 155 -124 155 -4 0 -33 -20 -65 -45 -55 -43 -59 -45 -75 -28 -10 10 -19 23 -21 29 -2 7 69 67 157 134 l160 122 17 -22 c10 -12 18 -26 18 -31z m-2925 -125 c14 -9 25 -21 25 -26 0 -9 -237 -356 -261 -382 -11 -12 -71 33 -65 49 10 28 258 375 267 375 5 0 21 -7 34 -16z m214 -138 c28 -15 28 -17 51 -200 13 -103 26 -186 29 -186 4 0 35 63 71 140 36 77 66 140 68 140 1 0 18 -6 37 -14 l35 -15 -66 -138 c-36 -76 -82 -173 -101 -215 -20 -43 -40 -78 -45 -78 -10 0 -68 29 -68 34 0 9 -41 315 -46 346 -6 34 -7 33 -56 -70 -27 -58 -58 -124 -69 -147 -18 -42 -19 -43 -46 -31 -15 6 -32 15 -36 18 -4 4 15 53 42 111 27 57 71 152 99 212 28 59 56 107 62 107 6 0 24 -7 39 -14z m2351 -205 c99 -91 180 -169 180 -173 0 -4 -16 -15 -36 -23 -41 -17 -42 -16 -105 43 l-36 34 -83 -42 -82 -41 6 -68 7 -67 -35 -17 c-35 -16 -36 -16 -40 6 -5 21 -36 435 -36 469 0 18 46 49 67 45 7 -1 93 -76 193 -166z m-1836 -1 c6 -6 -14 -93 -53 -232 -35 -123 -64 -224 -66 -226 -8 -8 -75 20 -75 31 0 9 57 222 107 396 15 52 16 53 46 47 17 -4 36 -11 41 -16z m1296 -19 c56 -40 67 -123 25 -185 l-24 -36 94 -81 c52 -44 95 -84 95 -89 0 -4 -12 -11 -27 -14 -16 -4 -36 -9 -45 -12 -11 -3 -46 22 -101 71 -77 69 -127 94 -127 64 0 -6 9 -47 21 -91 11 -45 16 -85 12 -89 -5 -5 -23 -10 -42 -11 l-34 -3 -53 209 c-29 115 -55 219 -56 230 -3 18 8 23 87 43 96 23 135 22 175 -6z m-935 -39 c50 -17 50 -17 47 -57 -2 -22 -5 -41 -7 -43 -1 -1 -26 9 -56 23 -65 30 -80 31 -110 6 -34 -28 -17 -64 56 -121 76 -59 105 -101 105 -152 0 -51 -24 -91 -70 -117 -44 -25 -98 -27 -166 -6 -72 22 -76 26 -68 72 l6 41 55 -29 c91 -48 153 -33 153 37 0 27 -8 40 -47 71 -98 78 -123 110 -123 156 0 111 97 163 225 119z m565 -36 l0 -33 -81 -7 -81 -8 6 -76 c3 -42 9 -134 12 -204 l6 -128 -41 0 c-22 0 -42 1 -42 3 -1 1 -7 92 -13 201 l-11 200 -80 0 -80 1 -3 33 c-3 32 -3 32 45 33 26 1 98 5 158 9 61 3 131 7 158 8 l47 2 0 -34z"></path><path d="M2983 5044 c-120 -21 -351 -90 -339 -101 2 -2 59 1 127 7 68 7 195 10 282 8 86 -1 157 -1 157 2 0 6 -103 72 -135 87 -13 6 -45 5 -92 -3z"></path><path d="M3484 5012 c-34 -22 -64 -44 -67 -48 -3 -5 79 -9 181 -9 103 0 230 -3 282 -7 l95 -7 -64 25 c-83 32 -241 73 -311 80 -51 5 -59 3 -116 -34z"></path><path d="M2803 4889 c-61 -5 -175 -20 -254 -34 -120 -20 -146 -28 -162 -47 -29 -36 -47 -84 -47 -124 0 -44 45 -128 65 -120 7 2 39 25 71 49 135 102 304 189 477 246 53 18 97 35 97 37 0 6 -118 2 -247 -7z"></path><path d="M3575 4893 c6 -5 48 -22 95 -37 47 -15 136 -52 197 -82 62 -30 117 -54 123 -54 10 0 144 46 208 71 17 8 32 17 32 20 0 26 -289 71 -535 84 -80 5 -126 4 -120 -2z"></path><path d="M3050 4822 c-174 -50 -328 -122 -476 -221 -113 -75 -124 -87 -98 -106 51 -38 289 -135 299 -123 1 2 44 58 94 125 51 68 142 175 203 238 74 77 104 115 92 114 -11 0 -62 -12 -114 -27z"></path><path d="M3519 4764 c47 -49 95 -100 107 -113 l22 -23 116 28 c64 15 116 31 116 35 0 20 -302 136 -405 154 l-40 8 84 -89z"></path><path d="M3124 4698 c-94 -98 -274 -320 -274 -339 0 -8 37 -19 64 -19 10 0 41 21 68 46 29 27 86 63 142 90 l92 44 11 142 c7 79 10 144 9 146 -2 1 -52 -48 -112 -110z"></path><path d="M2173 4671 c-100 -80 -199 -178 -274 -273 -104 -130 -239 -362 -239 -409 0 -49 149 -269 183 -269 6 0 25 37 41 83 85 243 247 499 424 671 l40 38 -29 46 c-37 58 -52 112 -43 157 3 19 4 35 0 35 -3 0 -49 -35 -103 -79z"></path><path d="M4314 4647 c-43 -29 -144 -84 -224 -124 -80 -40 -138 -72 -129 -73 22 0 142 42 222 78 76 35 237 137 237 151 0 25 -34 14 -106 -32z"></path><path d="M4450 4609 c-7 -17 -40 -57 -72 -90 l-60 -59 67 -72 c145 -160 287 -400 350 -595 15 -46 31 -83 35 -83 14 0 92 95 132 161 60 98 59 111 -7 236 -79 151 -180 288 -308 420 -60 62 -113 113 -117 113 -4 0 -13 -14 -20 -31z"></path><path d="M2376 4447 c-86 -62 -262 -299 -344 -462 -56 -111 -125 -302 -118 -322 7 -18 124 -92 226 -143 72 -36 249 -110 264 -110 2 0 10 33 16 73 39 241 136 510 263 731 l56 97 -25 9 c-14 6 -29 10 -34 10 -20 0 -189 78 -232 107 l-45 30 -27 -20z"></path><path d="M3560 4403 c-86 -14 -221 -58 -277 -90 -84 -47 -165 -127 -203 -203 -38 -76 -39 -91 -1 -24 42 73 138 157 227 199 80 38 206 75 256 75 33 0 92 23 102 39 7 11 -50 13 -104 4z"></path><path d="M4285 4344 c-39 -74 -227 -180 -406 -229 -123 -35 -124 -36 -54 -28 33 3 96 16 140 28 44 13 82 22 84 19 2 -2 -4 -21 -13 -42 -17 -37 -17 -38 14 -107 52 -116 108 -296 136 -437 15 -73 28 -135 30 -137 7 -7 174 59 268 106 48 24 119 65 157 90 78 52 77 39 26 183 -37 108 -115 263 -180 360 -40 61 -173 230 -181 230 -1 0 -10 -16 -21 -36z"></path><path d="M2766 4231 c-64 -104 -163 -321 -204 -446 -38 -113 -82 -299 -82 -344 0 -26 19 -26 215 -6 202 20 238 30 275 71 48 55 43 109 -32 328 -53 157 -62 193 -66 272 -3 57 0 106 8 129 7 20 10 38 8 40 -2 2 -22 7 -45 11 l-40 6 -37 -61z"></path><path d="M3910 3964 c-64 -40 -192 -91 -267 -107 -29 -6 -53 -15 -53 -19 0 -4 3 -8 8 -8 24 1 185 41 217 54 53 23 58 21 52 -19 -17 -105 -148 -205 -307 -236 -56 -11 -61 -14 -38 -20 25 -7 107 7 151 26 11 5 17 3 17 -6 -1 -24 -36 -93 -65 -127 -15 -18 -26 -34 -24 -36 7 -7 540 -52 544 -46 8 12 -29 191 -60 295 -36 118 -103 286 -114 284 -3 -1 -31 -16 -61 -35z"></path><path d="M1581 3793 c-41 -142 -61 -246 -68 -367 l-6 -99 49 6 c27 4 90 9 141 13 l92 7 6 46 c3 25 13 88 22 140 l15 93 -54 57 c-68 70 -111 126 -134 174 -10 20 -21 37 -25 37 -3 0 -21 -48 -38 -107z"></path><path d="M4950 3828 c-19 -34 -65 -92 -101 -130 l-66 -68 14 -72 c7 -40 17 -102 21 -138 l7 -65 70 -7 c39 -3 101 -9 139 -13 l69 -6 -7 83 c-10 113 -32 234 -63 351 -36 136 -40 139 -83 65z"></path><path d="M1881 3541 c-6 -26 -13 -78 -17 -114 l-7 -67 59 6 c33 3 120 11 194 17 l134 12 -107 52 c-60 29 -139 73 -177 97 l-69 45 -10 -48z"></path><path d="M4675 3555 c-16 -14 -90 -55 -163 -92 -74 -37 -130 -68 -125 -70 4 -1 71 -7 148 -13 77 -6 160 -13 184 -17 l44 -6 -7 49 c-18 126 -29 174 -40 174 -6 -1 -24 -12 -41 -25z"></path><path d="M1555 2850 c19 -88 81 -256 134 -365 109 -221 206 -345 357 -458 77 -58 241 -154 249 -146 2 2 -25 39 -60 82 -131 159 -248 359 -320 545 -28 71 -32 76 -121 142 -50 38 -126 107 -169 152 -74 79 -77 81 -70 48z"></path><path d="M1980 2519 c0 -20 98 -216 148 -297 73 -118 148 -215 247 -320 83 -88 90 -93 163 -116 93 -29 299 -76 335 -76 25 0 24 3 -42 103 -86 129 -186 308 -231 414 l-35 81 -65 18 c-125 33 -296 96 -407 149 -62 30 -113 49 -113 44z"></path><path d="M2650 2280 c0 -28 154 -308 243 -443 l95 -144 78 -6 c42 -4 99 -7 126 -7 l48 0 -5 38 c-3 20 -12 120 -20 222 -8 102 -18 208 -21 236 l-6 51 -111 7 c-105 6 -338 36 -399 51 -20 5 -28 3 -28 -5z"></path><path d="M2613 1693 c8 -13 171 -125 212 -145 36 -19 162 -48 205 -48 l30 0 -51 65 c-28 36 -61 67 -72 69 -198 37 -296 56 -311 62 -13 5 -17 4 -13 -3z"></path><path d="M3060 1604 c8 -10 34 -43 58 -71 41 -49 47 -53 88 -53 l44 0 0 59 c0 33 -4 62 -9 65 -5 4 -51 9 -103 13 -91 6 -93 6 -78 -13z"></path><path d="M1183 4898 c-29 -7 -113 -89 -113 -109 0 -4 57 -49 127 -100 l126 -92 18 24 c11 13 28 44 40 67 29 59 16 106 -46 160 -51 45 -105 62 -152 50z"></path><path d="M5513 4620 c-32 -13 -67 -38 -93 -66 -40 -43 -42 -49 -37 -91 7 -67 51 -108 115 -107 84 1 191 73 208 140 9 35 -2 70 -34 105 -36 40 -88 46 -159 19z"></path><path d="M4970 2780 c-41 -42 -112 -102 -156 -135 -82 -58 -82 -58 -118 -150 -74 -187 -175 -360 -300 -512 -36 -46 -63 -83 -59 -83 18 0 171 94 240 147 144 109 252 253 354 468 42 90 126 332 118 339 -2 2 -38 -32 -79 -74z"></path><path d="M4548 2489 c-125 -63 -292 -126 -453 -168 -38 -10 -42 -15 -75 -93 -43 -101 -141 -279 -227 -412 -35 -54 -62 -101 -59 -103 7 -7 222 41 326 74 78 24 91 32 158 97 146 141 258 298 358 502 35 72 64 133 64 137 0 12 -13 7 -92 -34z"></path><path d="M3925 1684 c-27 -8 -97 -22 -155 -32 l-104 -19 -54 -66 c-43 -55 -49 -67 -34 -67 36 0 177 32 207 47 35 18 225 143 225 149 0 7 -35 2 -85 -12z"></path><path d="M1070 2064 c-69 -41 -131 -79 -139 -83 -11 -6 -6 -20 22 -64 57 -89 111 -106 202 -63 72 33 115 85 115 139 0 44 -45 147 -64 146 -6 0 -67 -34 -136 -75z"></path><path d="M5313 1980 c-18 -10 -39 -33 -48 -49 -31 -60 -14 -112 55 -175 53 -48 96 -66 156 -66 40 0 51 5 79 34 59 63 54 118 -19 191 -34 34 -68 57 -100 68 -64 22 -84 21 -123 -3z"></path></g></svg>