<svg xmlns="http://www.w3.org/2000/svg" xmlns:xlink="http://www.w3.org/1999/xlink" id="svg" width="400" height="397.57575757575756" viewBox="0, 0, 400,397.57575757575756"><g id="svgg"><path id="path0" d="M45.328 198.807 L 45.328 397.614 200.000 397.614 L 354.672 397.614 354.672 319.881 L 354.672 242.147 353.701 242.147 C 353.168 242.147,352.627 242.316,352.499 242.522 C 352.372 242.728,351.467 243.017,350.488 243.163 C 349.509 243.310,348.708 243.566,348.708 243.731 C 348.708 243.897,347.813 244.151,346.720 244.296 C 345.626 244.442,344.732 244.715,344.732 244.905 C 344.732 245.095,343.658 245.375,342.345 245.527 C 341.033 245.679,339.868 245.951,339.757 246.131 C 339.645 246.311,338.393 246.583,336.974 246.735 C 335.555 246.887,334.394 247.146,334.394 247.311 C 334.394 247.476,333.145 247.734,331.619 247.884 C 330.094 248.035,328.754 248.305,328.643 248.485 C 328.532 248.664,326.873 248.940,324.956 249.098 C 323.039 249.256,321.291 249.531,321.070 249.711 C 320.850 249.890,318.882 250.154,316.696 250.296 C 314.511 250.438,312.366 250.715,311.928 250.911 C 309.952 251.799,281.484 252.824,278.131 252.128 C 277.038 251.901,273.638 251.537,270.577 251.319 C 263.181 250.792,255.566 249.965,255.057 249.633 C 254.832 249.485,252.908 249.237,250.783 249.081 C 248.658 248.925,246.918 248.664,246.918 248.501 C 246.918 248.338,245.578 248.079,243.939 247.926 C 242.300 247.772,240.870 247.501,240.760 247.323 C 240.650 247.145,239.307 246.874,237.775 246.720 C 236.243 246.566,234.990 246.300,234.990 246.129 C 234.990 245.958,233.827 245.694,232.406 245.542 C 230.984 245.389,229.821 245.118,229.821 244.938 C 229.821 244.758,228.748 244.486,227.435 244.334 C 226.123 244.182,225.050 243.902,225.050 243.712 C 225.050 243.523,224.155 243.249,223.062 243.104 C 221.968 242.959,221.074 242.684,221.074 242.494 C 221.074 242.303,220.760 242.141,220.378 242.134 C 219.663 242.121,216.021 240.936,215.305 240.484 C 215.085 240.345,214.233 240.105,213.412 239.951 C 212.591 239.797,211.822 239.513,211.702 239.319 C 211.582 239.125,211.181 238.965,210.812 238.964 C 210.442 238.962,209.659 238.711,209.073 238.405 C 208.486 238.099,207.457 237.728,206.786 237.580 C 206.115 237.433,205.567 237.168,205.567 236.991 C 205.567 236.814,204.940 236.552,204.175 236.408 C 203.410 236.264,202.783 235.999,202.783 235.818 C 202.783 235.637,202.068 235.375,201.193 235.235 C 200.318 235.095,199.602 234.818,199.602 234.619 C 199.602 234.421,199.066 234.140,198.410 233.996 C 197.753 233.852,197.217 233.584,197.217 233.400 C 197.217 233.216,196.680 232.947,196.024 232.803 C 195.368 232.659,194.831 232.391,194.831 232.207 C 194.831 232.023,194.294 231.754,193.638 231.610 C 192.982 231.466,192.445 231.198,192.445 231.014 C 192.445 230.830,191.909 230.562,191.252 230.417 C 190.596 230.273,190.058 230.036,190.055 229.889 C 190.053 229.742,189.292 229.266,188.365 228.830 C 187.438 228.394,186.443 227.813,186.155 227.538 C 185.866 227.263,185.388 227.038,185.094 227.038 C 184.800 227.038,184.500 226.904,184.427 226.740 C 184.354 226.576,183.400 225.994,182.306 225.447 C 181.213 224.901,180.175 224.230,180.000 223.956 C 179.825 223.683,179.423 223.459,179.105 223.459 C 178.788 223.459,178.529 223.284,178.529 223.069 C 178.529 222.855,178.094 222.570,177.564 222.437 C 177.033 222.304,176.502 221.942,176.383 221.634 C 176.265 221.326,175.894 221.074,175.559 221.074 C 175.224 221.074,174.950 220.898,174.950 220.684 C 174.950 220.469,174.516 220.184,173.985 220.051 C 173.454 219.918,172.923 219.557,172.805 219.248 C 172.686 218.940,172.316 218.688,171.981 218.688 C 171.646 218.688,171.368 218.554,171.363 218.390 C 171.358 218.226,170.467 217.465,169.384 216.700 C 168.300 215.934,167.409 215.174,167.405 215.010 C 167.400 214.846,167.136 214.712,166.819 214.712 C 166.502 214.712,166.099 214.475,165.924 214.185 C 165.749 213.896,164.993 213.225,164.243 212.694 C 163.493 212.164,162.217 211.059,161.407 210.239 C 160.597 209.418,159.808 208.748,159.654 208.748 C 159.194 208.748,154.564 204.277,146.837 196.371 C 145.261 194.758,143.740 193.240,143.457 192.996 C 143.174 192.752,142.674 192.148,142.346 191.654 C 142.018 191.161,140.989 189.929,140.060 188.918 C 139.130 187.907,138.370 186.958,138.370 186.811 C 138.370 186.663,137.833 186.006,137.177 185.349 C 136.521 184.693,135.984 183.973,135.984 183.748 C 135.984 183.524,135.747 183.197,135.458 183.022 C 135.168 182.847,134.497 182.088,133.967 181.336 C 132.636 179.449,131.921 178.528,131.153 177.713 C 130.791 177.330,130.382 176.658,130.243 176.219 C 130.104 175.780,129.728 175.321,129.408 175.198 C 129.089 175.076,128.827 174.701,128.827 174.366 C 128.827 174.031,128.684 173.757,128.509 173.757 C 128.335 173.757,127.753 173.047,127.217 172.178 C 126.681 171.309,126.108 170.593,125.944 170.587 C 125.780 170.581,125.646 170.303,125.646 169.968 C 125.646 169.633,125.378 169.256,125.050 169.130 C 124.722 169.004,124.453 168.665,124.453 168.376 C 124.453 168.087,124.208 167.605,123.909 167.306 C 123.610 167.007,123.240 166.368,123.087 165.886 C 122.934 165.404,122.642 165.010,122.438 165.010 C 122.234 165.010,122.068 164.840,122.068 164.632 C 122.068 164.425,121.558 163.485,120.936 162.545 C 120.313 161.604,119.463 160.209,119.047 159.443 C 118.631 158.678,118.067 157.909,117.793 157.734 C 117.520 157.559,117.296 157.156,117.296 156.839 C 117.296 156.522,117.137 156.262,116.942 156.262 C 116.747 156.262,116.464 155.772,116.314 155.173 C 116.163 154.574,115.920 153.992,115.774 153.881 C 115.627 153.769,115.206 153.052,114.839 152.286 C 112.483 147.379,111.332 144.788,111.332 144.392 C 111.332 144.141,111.161 143.936,110.952 143.936 C 110.744 143.936,110.455 143.310,110.312 142.545 C 110.168 141.779,109.892 141.153,109.697 141.153 C 109.503 141.153,109.338 140.840,109.330 140.457 C 109.323 140.075,108.971 139.046,108.549 138.171 C 108.126 137.296,107.774 136.303,107.767 135.964 C 107.760 135.625,107.606 135.178,107.426 134.970 C 107.246 134.762,106.754 133.474,106.333 132.107 C 105.912 130.741,105.453 129.622,105.314 129.622 C 105.174 129.622,104.940 128.821,104.794 127.842 C 104.647 126.863,104.363 125.961,104.164 125.838 C 103.964 125.714,103.683 124.726,103.539 123.642 C 103.395 122.557,103.142 121.670,102.977 121.670 C 102.811 121.670,102.554 120.689,102.404 119.489 C 102.254 118.290,101.982 117.217,101.801 117.104 C 101.619 116.992,101.345 115.826,101.193 114.513 C 101.040 113.200,100.773 112.037,100.598 111.929 C 100.423 111.821,100.154 110.479,100.000 108.946 C 99.846 107.414,99.581 106.074,99.410 105.968 C 99.240 105.863,98.972 104.388,98.815 102.690 C 98.658 100.992,98.389 99.423,98.218 99.205 C 98.047 98.986,97.784 97.018,97.633 94.831 C 97.482 92.644,97.190 90.318,96.984 89.662 C 95.317 84.365,95.341 32.112,97.011 28.429 C 97.209 27.992,97.491 25.577,97.636 23.062 C 97.782 20.547,98.040 18.310,98.211 18.091 C 98.381 17.873,98.649 16.038,98.806 14.013 C 98.962 11.989,99.229 10.247,99.398 10.142 C 99.568 10.038,99.833 8.429,99.988 6.567 C 100.143 4.704,100.433 3.181,100.632 3.181 C 100.831 3.181,100.994 2.465,100.994 1.590 L 100.994 0.000 73.161 0.000 L 45.328 0.000 45.328 198.807 M217.372 2.160 C 216.346 3.349,215.507 4.512,215.507 4.745 C 215.507 4.978,215.373 5.174,215.209 5.180 C 215.045 5.186,214.472 5.901,213.936 6.770 C 213.400 7.639,212.818 8.350,212.644 8.350 C 212.469 8.350,212.326 8.579,212.326 8.858 C 212.326 9.137,211.968 9.672,211.531 10.047 C 211.093 10.421,210.736 10.979,210.736 11.286 C 210.736 11.592,210.467 11.946,210.139 12.072 C 209.811 12.198,209.543 12.575,209.543 12.910 C 209.543 13.245,209.367 13.519,209.153 13.519 C 208.938 13.519,208.650 13.966,208.513 14.513 C 208.376 15.060,208.145 15.507,208.000 15.507 C 207.854 15.507,207.383 16.178,206.953 16.998 C 206.523 17.818,205.945 18.632,205.670 18.807 C 205.394 18.982,205.169 19.385,205.169 19.702 C 205.169 20.019,204.993 20.278,204.779 20.278 C 204.564 20.278,204.277 20.726,204.139 21.272 C 204.002 21.819,203.770 22.266,203.623 22.266 C 203.476 22.266,203.144 22.758,202.885 23.360 C 202.380 24.534,201.545 25.919,201.147 26.243 C 201.012 26.352,200.765 26.880,200.598 27.417 C 200.430 27.953,200.048 28.637,199.749 28.936 C 199.450 29.235,199.205 29.736,199.205 30.048 C 199.205 30.361,199.040 30.616,198.839 30.616 C 198.637 30.616,198.355 31.153,198.211 31.809 C 198.067 32.465,197.798 33.002,197.614 33.002 C 197.430 33.002,197.162 33.539,197.018 34.195 C 196.874 34.851,196.591 35.388,196.390 35.388 C 196.189 35.388,196.018 35.611,196.010 35.885 C 196.003 36.158,195.651 37.097,195.229 37.972 C 194.806 38.847,194.454 39.861,194.447 40.225 C 194.439 40.590,194.285 40.948,194.103 41.021 C 193.768 41.155,191.661 45.408,191.637 45.999 C 191.629 46.177,191.277 47.038,190.855 47.913 C 190.432 48.787,190.081 49.706,190.073 49.955 C 190.066 50.203,189.792 50.919,189.466 51.545 C 189.139 52.171,188.871 52.986,188.869 53.356 C 188.868 53.726,188.698 54.133,188.492 54.260 C 188.286 54.388,187.997 55.293,187.851 56.272 C 187.704 57.251,187.436 58.052,187.256 58.052 C 187.075 58.052,186.807 58.857,186.659 59.841 C 186.512 60.825,186.249 61.630,186.076 61.630 C 185.902 61.630,185.637 62.525,185.487 63.618 C 185.337 64.711,185.073 65.693,184.900 65.799 C 184.727 65.906,184.457 67.025,184.300 68.285 C 184.143 69.545,183.859 70.674,183.668 70.792 C 183.477 70.911,183.201 72.298,183.055 73.874 C 182.908 75.450,182.651 76.740,182.484 76.740 C 182.316 76.740,182.052 78.305,181.897 80.219 C 181.742 82.132,181.476 83.877,181.306 84.095 C 180.125 85.612,180.134 113.178,181.315 114.712 C 181.484 114.930,181.750 116.586,181.906 118.392 C 182.063 120.197,182.333 121.763,182.507 121.870 C 182.682 121.978,182.949 123.140,183.101 124.453 C 183.254 125.766,183.527 126.932,183.709 127.045 C 183.891 127.157,184.162 128.230,184.312 129.430 C 184.462 130.629,184.723 131.610,184.891 131.610 C 185.060 131.610,185.318 132.411,185.465 133.390 C 185.612 134.369,185.900 135.275,186.106 135.402 C 186.313 135.529,186.482 135.936,186.484 136.306 C 186.485 136.676,186.753 137.491,187.080 138.117 C 187.407 138.743,187.674 139.424,187.674 139.630 C 187.674 139.836,188.042 140.844,188.491 141.871 C 188.940 142.897,189.457 144.095,189.640 144.533 C 190.716 147.110,193.807 153.082,194.065 153.082 C 194.233 153.082,194.488 153.618,194.632 154.274 C 194.776 154.930,195.059 155.467,195.260 155.467 C 195.462 155.467,195.626 155.723,195.626 156.035 C 195.626 156.348,195.852 156.840,196.128 157.129 C 196.404 157.418,196.850 158.101,197.119 158.648 C 197.742 159.914,198.472 161.051,199.105 161.741 C 199.379 162.039,199.602 162.520,199.602 162.809 C 199.602 163.098,199.871 163.437,200.199 163.563 C 200.527 163.689,200.795 164.066,200.795 164.401 C 200.795 164.736,200.929 165.015,201.093 165.021 C 201.257 165.027,201.830 165.742,202.366 166.611 C 202.902 167.480,203.484 168.191,203.658 168.191 C 203.833 168.191,203.976 168.391,203.976 168.635 C 203.976 169.101,205.552 171.109,207.562 173.204 C 208.214 173.883,208.748 174.562,208.748 174.712 C 208.748 174.862,209.732 175.993,210.934 177.225 C 212.137 178.457,213.121 179.617,213.121 179.803 C 213.121 180.220,223.045 190.060,223.466 190.060 C 223.633 190.060,224.841 191.088,226.151 192.346 C 229.278 195.346,230.546 196.455,232.091 197.542 C 233.349 198.428,234.479 199.343,236.473 201.093 C 237.033 201.585,237.653 201.988,237.850 201.988 C 238.048 201.988,238.624 202.435,239.130 202.982 C 239.637 203.529,240.260 203.976,240.515 203.976 C 240.770 203.976,241.082 204.245,241.208 204.573 C 241.334 204.901,241.592 205.169,241.780 205.169 C 242.258 205.169,245.726 207.645,245.726 207.986 C 245.726 208.139,246.173 208.376,246.720 208.513 C 247.266 208.650,247.714 208.938,247.714 209.153 C 247.714 209.367,247.988 209.543,248.323 209.543 C 248.658 209.543,249.028 209.795,249.147 210.103 C 249.265 210.412,249.796 210.773,250.327 210.906 C 250.858 211.039,251.292 211.324,251.292 211.538 C 251.292 211.753,251.478 211.928,251.706 211.928 C 252.097 211.928,254.443 213.436,254.871 213.962 C 254.980 214.097,255.509 214.344,256.045 214.512 C 256.582 214.679,257.265 215.061,257.565 215.361 C 257.864 215.660,258.364 215.905,258.677 215.905 C 258.989 215.905,259.245 216.064,259.245 216.259 C 259.245 216.454,259.735 216.737,260.334 216.887 C 260.933 217.037,261.515 217.294,261.626 217.456 C 261.960 217.942,267.008 220.278,267.725 220.278 C 268.091 220.278,268.390 220.437,268.390 220.632 C 268.390 220.826,269.016 221.103,269.781 221.246 C 270.547 221.390,271.173 221.658,271.173 221.842 C 271.173 222.026,271.978 222.297,272.962 222.444 C 273.946 222.592,274.751 222.864,274.751 223.049 C 274.751 223.233,275.646 223.508,276.740 223.658 C 277.833 223.808,278.728 224.076,278.728 224.253 C 278.728 224.429,279.801 224.699,281.113 224.851 C 282.425 225.003,283.499 225.272,283.499 225.447 C 283.499 225.623,284.573 225.891,285.885 226.044 C 287.197 226.196,288.270 226.461,288.270 226.632 C 288.270 226.804,289.611 227.070,291.250 227.224 C 292.889 227.377,294.317 227.645,294.425 227.819 C 294.532 227.993,296.323 228.263,298.404 228.419 C 300.484 228.575,302.187 228.849,302.187 229.029 C 302.187 229.368,303.273 229.487,312.922 230.204 C 316.093 230.440,319.724 230.817,320.989 231.041 C 322.255 231.265,330.351 231.559,338.981 231.693 L 354.672 231.937 354.672 115.968 L 354.672 0.000 286.955 0.000 L 219.237 0.000 217.372 2.160 M83.274 308.573 C 85.874 309.546,88.780 312.208,89.875 314.620 C 91.005 317.110,90.899 317.464,88.861 318.009 C 86.353 318.680,86.381 318.690,85.448 316.704 C 82.274 309.953,72.510 310.140,68.881 317.023 C 67.397 319.838,67.263 328.610,68.658 331.642 C 72.144 339.217,82.796 339.022,85.919 331.327 L 86.793 329.174 88.426 329.444 C 91.590 329.968,91.743 330.337,90.228 333.797 C 86.043 343.360,70.829 344.262,65.300 335.276 C 56.410 320.826,68.402 303.009,83.274 308.573 M102.115 309.902 C 102.363 312.932,102.040 313.377,99.689 313.241 L 97.614 313.121 97.491 311.184 C 97.307 308.294,97.473 308.090,99.896 308.230 L 101.988 308.350 102.115 309.902 M138.171 310.736 L 138.171 313.121 135.984 313.121 L 133.797 313.121 133.674 311.184 C 133.490 308.294,133.656 308.090,136.079 308.230 L 138.171 308.350 138.171 310.736 M149.806 324.553 L 149.910 340.755 147.718 340.755 L 145.527 340.755 145.527 324.433 L 145.527 308.110 147.614 308.230 L 149.702 308.350 149.806 324.553 M185.464 312.624 C 186.481 315.084,187.478 317.455,187.680 317.893 C 187.883 318.330,189.017 321.103,190.201 324.056 C 192.835 330.624,195.106 336.180,195.808 337.773 C 197.143 340.804,197.169 340.756,194.162 340.753 L 191.451 340.751 189.900 336.479 C 187.811 330.728,188.616 331.213,181.164 331.214 L 174.751 331.215 173.008 335.985 L 171.264 340.755 168.932 340.755 C 166.067 340.755,166.072 340.789,168.172 335.426 C 169.037 333.218,170.390 329.712,171.178 327.634 C 172.734 323.537,173.590 321.342,174.359 319.483 C 174.630 318.827,175.614 316.233,176.546 313.718 C 178.664 308.002,178.536 308.151,181.320 308.151 L 183.617 308.151 185.464 312.624 M229.182 308.780 C 230.241 311.538,229.247 313.400,226.800 313.245 L 224.851 313.121 224.728 311.184 C 224.660 310.118,224.699 309.000,224.815 308.699 C 225.128 307.882,228.864 307.952,229.182 308.780 M282.107 310.736 L 282.107 313.121 280.158 313.245 C 277.926 313.387,277.550 313.045,277.541 310.868 C 277.530 308.365,277.786 308.099,280.070 308.231 L 282.107 308.350 282.107 310.736 M268.787 313.145 L 268.787 316.899 270.534 316.899 C 272.365 316.899,272.763 317.281,272.763 319.038 C 272.763 320.319,272.015 320.875,270.290 320.875 L 268.770 320.875 268.878 328.728 L 268.986 336.581 270.766 336.779 C 272.521 336.975,272.551 337.004,272.846 338.742 C 273.225 340.976,273.254 340.954,269.789 340.954 C 264.556 340.954,264.016 339.821,264.016 328.840 L 264.016 320.875 263.121 320.869 C 260.700 320.852,260.328 317.204,262.724 316.973 L 264.016 316.848 264.016 314.098 L 264.016 311.348 266.079 310.170 C 268.738 308.651,268.787 308.705,268.787 313.145 M179.645 317.818 C 178.861 320.046,177.753 323.077,177.184 324.553 L 176.150 327.237 181.163 327.237 C 185.752 327.237,186.159 327.178,185.969 326.541 C 185.684 325.586,183.915 320.748,182.880 318.091 C 182.411 316.889,181.935 315.499,181.821 315.004 C 181.432 313.305,181.068 313.775,179.645 317.818 M250.457 316.924 C 255.193 318.015,255.788 319.437,256.107 330.417 C 256.244 335.119,256.492 339.378,256.659 339.882 C 256.956 340.777,256.909 340.795,254.625 340.677 C 252.404 340.563,252.280 340.502,252.160 339.463 C 252.008 338.138,252.061 338.142,250.299 339.337 C 245.049 342.900,238.209 341.960,235.962 337.366 C 233.604 332.546,236.649 328.172,243.042 327.194 C 244.409 326.985,246.779 326.596,248.310 326.329 L 251.093 325.845 251.214 324.401 C 251.599 319.794,242.973 318.732,240.840 323.123 C 240.148 324.548,239.820 324.854,239.174 324.680 C 238.732 324.561,237.897 324.462,237.319 324.459 C 235.842 324.451,235.705 323.669,236.775 321.360 C 238.583 317.459,244.481 315.546,250.457 316.924 M304.438 317.659 C 315.322 323.452,311.248 341.551,299.059 341.551 C 286.394 341.551,283.803 320.007,296.096 316.913 C 298.395 316.334,302.667 316.716,304.438 317.659 M330.616 316.946 C 335.392 318.269,335.984 319.889,335.984 331.643 L 335.984 340.755 333.841 340.755 L 331.698 340.755 331.553 332.088 C 331.375 321.348,330.573 319.779,325.720 320.666 C 321.635 321.412,321.137 322.668,320.946 332.704 L 320.793 340.755 318.641 340.755 L 316.489 340.755 316.594 328.926 L 316.700 317.097 318.219 316.972 C 319.952 316.830,321.018 317.501,320.741 318.561 C 320.491 319.516,320.674 319.478,322.298 318.239 C 324.453 316.595,327.590 316.108,330.616 316.946 M101.993 317.793 C 102.113 318.285,102.161 323.608,102.100 329.622 L 101.988 340.557 99.702 340.676 L 97.416 340.795 97.416 329.112 C 97.416 322.686,97.535 317.309,97.681 317.164 C 98.430 316.414,101.775 316.902,101.993 317.793 M111.999 318.390 C 112.792 320.276,115.434 327.590,116.918 332.008 C 117.543 333.867,118.063 335.090,118.073 334.726 C 118.083 334.362,118.613 332.662,119.251 330.948 C 119.889 329.235,121.301 325.417,122.390 322.465 L 124.369 317.097 126.256 316.974 C 128.760 316.810,128.968 317.135,127.998 319.698 C 127.547 320.892,127.025 322.316,126.839 322.863 C 126.653 323.410,126.116 324.841,125.646 326.044 C 125.176 327.247,124.642 328.678,124.459 329.225 C 124.276 329.771,123.688 331.292,123.152 332.604 C 122.616 333.917,121.690 336.287,121.094 337.873 L 120.010 340.755 117.955 340.755 C 115.515 340.755,116.340 342.256,110.975 328.057 C 106.567 316.393,106.639 316.899,109.388 316.899 C 111.305 316.899,111.394 316.949,111.999 318.390 M138.276 328.926 L 138.382 340.755 135.990 340.755 L 133.598 340.755 133.598 329.092 C 133.598 316.072,133.440 316.820,136.168 316.980 L 138.171 317.097 138.276 328.926 M203.426 319.483 C 203.908 320.795,204.877 323.479,205.578 325.447 C 208.894 334.753,208.846 334.648,209.256 333.582 C 210.171 331.204,210.799 329.500,212.546 324.652 C 215.503 316.447,215.213 316.899,217.514 316.899 C 220.145 316.899,220.224 316.447,215.308 329.433 C 213.012 335.499,211.133 340.537,211.133 340.628 C 211.133 340.720,210.131 340.741,208.906 340.676 L 206.679 340.557 203.338 331.610 C 201.501 326.690,199.841 322.306,199.649 321.869 C 197.542 317.066,197.588 316.807,200.515 316.978 L 202.549 317.097 203.426 319.483 M229.229 317.793 C 229.349 318.285,229.398 323.608,229.336 329.622 L 229.225 340.557 226.938 340.676 L 224.652 340.795 224.652 329.112 C 224.652 322.686,224.771 317.309,224.917 317.164 C 225.667 316.414,229.012 316.902,229.229 317.793 M282.213 328.946 L 282.318 340.796 280.026 340.676 L 277.734 340.557 277.628 329.273 C 277.509 316.532,277.452 316.795,280.283 316.979 L 282.107 317.097 282.213 328.946 M296.819 320.861 C 291.530 323.075,291.392 334.275,296.621 336.979 C 301.597 339.552,305.567 335.921,305.567 328.796 C 305.567 322.213,301.784 318.782,296.819 320.861 M249.503 329.881 C 248.628 330.133,246.599 330.567,244.994 330.846 C 241.327 331.484,240.159 332.331,240.159 334.353 C 240.159 339.613,250.104 338.416,251.114 333.034 C 251.663 330.106,251.286 329.368,249.503 329.881 M154.136 346.720 C 154.402 347.266,154.912 348.429,155.269 349.304 C 155.626 350.179,156.080 351.252,156.278 351.690 C 156.476 352.127,157.006 353.469,157.455 354.672 C 157.905 355.875,158.439 357.217,158.643 357.654 C 158.846 358.091,159.922 360.686,161.034 363.419 C 162.145 366.153,163.208 368.748,163.395 369.185 C 167.540 378.871,167.524 378.635,163.994 378.451 L 161.669 378.330 159.840 373.559 L 158.010 368.787 151.722 368.678 C 145.341 368.566,144.334 368.756,144.334 370.068 C 144.334 370.391,144.090 371.219,143.791 371.908 C 143.492 372.597,142.815 374.324,142.285 375.746 L 141.323 378.330 139.193 378.452 C 136.552 378.604,136.119 378.231,136.905 376.483 C 137.658 374.806,138.900 371.589,141.720 364.016 C 142.941 360.736,144.107 357.694,144.310 357.256 C 144.987 355.802,148.310 347.108,148.310 346.792 C 148.310 345.143,153.337 345.081,154.136 346.720 M220.588 351.173 L 220.698 356.621 222.133 355.647 C 226.609 352.610,232.816 353.864,234.909 358.230 C 235.488 359.436,235.586 361.003,235.586 368.986 L 235.586 378.330 233.550 378.448 C 230.959 378.599,231.026 378.847,231.019 369.145 C 231.012 359.184,230.525 357.997,226.480 358.088 C 221.697 358.196,220.929 359.795,220.676 370.179 L 220.477 378.330 218.390 378.450 L 216.302 378.570 216.302 362.314 C 216.302 344.412,216.156 345.444,218.673 345.608 L 220.477 345.726 220.588 351.173 M294.851 346.459 C 294.980 346.972,295.028 348.091,294.958 348.944 L 294.831 350.497 292.644 350.497 L 290.457 350.497 290.335 348.348 C 290.193 345.856,290.484 345.542,292.935 345.533 C 294.370 345.528,294.651 345.664,294.851 346.459 M205.567 350.489 C 205.567 354.651,205.446 354.478,208.545 354.762 C 211.257 355.010,210.330 358.250,207.547 358.250 L 205.567 358.250 205.567 365.518 C 205.567 373.930,205.756 374.553,208.320 374.553 C 209.802 374.553,209.841 374.590,210.064 376.243 C 210.357 378.411,210.026 378.697,207.213 378.714 C 201.907 378.745,201.425 377.790,201.265 366.922 L 201.138 358.297 199.873 358.174 C 197.863 357.980,197.691 354.790,199.680 354.599 L 200.994 354.473 201.115 351.904 C 201.249 349.045,201.501 348.589,203.550 347.506 C 205.600 346.422,205.567 346.373,205.567 350.489 M308.634 350.596 L 308.748 354.473 310.634 354.594 C 314.038 354.813,313.921 358.250,310.510 358.250 L 308.549 358.250 308.561 365.706 C 308.576 374.084,308.674 374.421,311.156 374.624 C 312.679 374.748,312.730 374.800,312.954 376.480 C 313.229 378.538,312.944 378.736,309.742 378.710 C 304.770 378.670,304.175 377.377,304.175 366.620 L 304.175 358.250 302.810 358.250 C 301.290 358.250,300.731 357.363,301.165 355.637 C 301.363 354.847,301.657 354.672,302.791 354.672 L 304.175 354.672 304.175 351.730 L 304.175 348.789 305.865 347.770 C 308.464 346.202,308.506 346.245,308.634 350.596 M149.846 354.991 C 149.064 357.331,147.959 360.452,147.391 361.928 L 146.358 364.612 151.310 364.612 C 156.656 364.612,156.607 364.639,155.611 362.340 C 154.537 359.859,154.321 359.316,153.746 357.654 C 152.549 354.191,151.381 350.891,151.326 350.816 C 151.294 350.773,150.628 352.652,149.846 354.991 M258.558 354.857 C 263.849 357.073,266.567 364.715,264.510 371.589 C 261.634 381.202,247.040 381.422,243.628 371.904 C 239.670 360.863,248.588 350.681,258.558 354.857 M284.531 354.932 C 285.568 355.612,285.552 356.148,284.432 358.350 C 283.788 359.617,283.959 359.562,282.377 359.011 C 278.204 357.556,277.056 359.881,276.763 370.378 L 276.541 378.330 274.553 378.330 L 272.565 378.330 272.459 366.501 L 272.354 354.672 274.348 354.672 C 276.330 354.672,276.342 354.680,276.356 355.964 L 276.371 357.256 277.251 356.188 C 279.169 353.860,282.118 353.351,284.531 354.932 M176.938 362.894 C 176.938 373.912,177.580 375.362,182.215 374.813 C 186.572 374.297,187.276 372.575,187.276 362.438 L 187.276 354.672 189.463 354.672 L 191.650 354.672 191.650 366.622 L 191.650 378.572 189.761 378.451 C 187.953 378.335,187.867 378.275,187.749 377.045 L 187.625 375.760 186.755 376.596 C 183.766 379.466,177.763 379.681,174.823 377.023 C 172.805 375.198,172.487 373.705,172.263 364.995 C 171.994 354.510,171.955 354.672,174.759 354.672 L 176.938 354.672 176.938 362.894 M294.831 366.600 L 294.831 378.330 292.644 378.330 L 290.457 378.330 290.352 366.481 L 290.247 354.632 292.539 354.751 L 294.831 354.871 294.831 366.600 M322.192 356.362 C 322.521 357.291,323.624 360.378,324.645 363.221 C 325.666 366.064,326.764 369.245,327.086 370.290 C 327.734 372.393,328.194 372.453,328.585 370.485 C 328.879 369.009,332.241 359.701,333.831 355.964 C 334.347 354.751,334.503 354.672,336.375 354.672 C 338.626 354.672,338.848 355.114,337.813 357.541 C 337.097 359.222,336.306 361.299,334.968 365.010 C 334.377 366.650,333.670 368.529,333.397 369.185 C 333.124 369.841,332.584 371.272,332.199 372.366 C 328.413 383.094,326.741 386.218,324.173 387.353 C 320.804 388.844,318.489 387.789,318.489 384.763 L 318.489 383.196 319.933 383.430 C 322.407 383.832,323.840 382.928,324.801 380.360 C 325.654 378.079,325.650 378.019,324.408 375.149 C 323.648 373.394,316.899 355.264,316.899 354.979 C 316.899 354.810,317.955 354.672,319.247 354.672 L 321.595 354.672 322.192 356.362 M251.690 358.299 C 247.685 359.891,246.055 366.515,248.452 371.456 C 251.064 376.842,258.473 375.984,260.060 370.111 C 262.088 362.606,257.421 356.020,251.690 358.299 " stroke="none" fill="#233383" fill-rule="evenodd"></path><path id="path1" d="M74.155 308.497 C 64.876 310.949,60.678 320.480,64.060 331.412 C 67.628 342.945,84.720 344.540,89.719 333.805 C 91.028 330.993,90.949 330.589,88.990 330.091 C 87.176 329.631,86.680 329.752,86.680 330.656 C 86.680 336.007,77.365 339.590,72.096 336.264 C 64.314 331.351,65.471 314.813,73.796 311.977 C 78.975 310.212,83.548 311.868,85.858 316.344 L 86.700 317.976 88.479 317.569 C 90.577 317.089,90.608 316.924,89.085 314.270 C 86.341 309.485,79.876 306.986,74.155 308.497 M98.097 308.795 C 97.941 308.951,97.813 309.854,97.813 310.802 L 97.813 312.525 99.823 312.525 L 101.833 312.525 101.712 310.636 L 101.590 308.748 99.986 308.629 C 99.103 308.564,98.253 308.639,98.097 308.795 M134.261 308.814 C 134.115 308.960,133.996 309.854,133.996 310.802 L 133.996 312.525 135.785 312.525 L 137.575 312.525 137.575 310.537 L 137.575 308.549 136.050 308.549 C 135.212 308.549,134.407 308.668,134.261 308.814 M145.924 324.453 L 145.924 340.358 147.714 340.358 L 149.503 340.358 149.503 324.453 L 149.503 308.549 147.714 308.549 L 145.924 308.549 145.924 324.453 M178.926 308.677 C 178.926 308.866,173.009 324.519,172.586 325.447 C 171.949 326.848,166.998 339.929,166.998 340.213 C 166.998 340.293,167.870 340.358,168.936 340.358 L 170.874 340.358 172.348 336.282 C 173.159 334.041,173.961 331.938,174.131 331.610 C 174.384 331.122,175.675 330.994,181.241 330.905 L 188.042 330.796 188.589 331.899 C 188.890 332.506,189.747 334.655,190.493 336.676 L 191.849 340.350 193.936 340.354 C 196.420 340.359,196.409 340.420,194.661 336.252 C 193.911 334.464,192.464 330.944,191.445 328.429 C 190.426 325.915,189.437 323.499,189.246 323.062 C 189.056 322.624,187.990 320.030,186.879 317.296 C 185.767 314.563,184.690 311.968,184.485 311.531 C 184.280 311.093,183.934 310.244,183.716 309.642 C 183.374 308.697,178.926 307.800,178.926 308.677 M225.050 310.537 L 225.050 312.525 226.839 312.525 L 228.628 312.525 228.628 310.537 L 228.628 308.549 226.839 308.549 L 225.050 308.549 225.050 310.537 M278.330 310.514 L 278.330 312.525 280.141 312.525 L 281.952 312.525 281.831 310.636 L 281.710 308.748 280.020 308.625 L 278.330 308.503 278.330 310.514 M266.004 310.760 C 264.676 311.695,264.603 311.871,264.414 314.617 L 264.215 317.495 262.899 317.621 C 261.054 317.799,261.152 319.761,263.022 320.081 L 264.215 320.285 264.435 329.029 C 264.709 339.924,265.120 340.768,270.139 340.749 C 273.265 340.738,273.690 337.412,270.574 337.345 C 268.291 337.296,268.215 337.049,268.052 329.214 C 267.864 320.156,267.881 320.080,270.187 320.080 C 271.901 320.080,271.968 320.035,271.968 318.887 C 271.968 317.771,271.871 317.694,270.457 317.694 C 268.253 317.694,267.992 317.222,267.992 313.241 C 267.992 309.377,267.984 309.367,266.004 310.760 M183.259 317.495 C 185.052 322.593,185.218 323.031,186.234 325.375 C 187.175 327.547,186.985 327.634,181.312 327.634 C 175.146 327.634,175.376 327.928,177.379 322.609 C 178.753 318.961,180.130 314.895,180.783 312.558 C 181.049 311.605,181.510 312.524,183.259 317.495 M242.887 317.424 C 239.387 318.214,235.995 321.558,236.735 323.487 C 237.044 324.292,240.159 324.273,240.159 323.466 C 240.159 318.472,251.467 318.952,251.750 323.958 C 251.879 326.247,251.834 326.271,245.757 327.249 C 238.120 328.478,235.788 330.196,235.788 334.592 C 235.788 340.655,243.619 343.057,250.083 338.977 C 252.066 337.725,252.042 337.723,252.545 339.165 C 252.924 340.253,253.119 340.358,254.753 340.358 C 256.321 340.358,256.505 340.270,256.219 339.662 C 256.039 339.279,255.792 335.119,255.670 330.417 C 255.438 321.476,255.242 320.463,253.420 318.814 C 251.661 317.223,246.685 316.566,242.887 317.424 M296.198 317.441 C 284.200 320.677,286.781 340.809,299.205 340.889 C 306.087 340.933,309.922 336.692,309.935 329.026 C 309.949 320.250,304.094 315.312,296.198 317.441 M324.952 317.460 C 324.023 317.761,322.591 318.598,321.771 319.321 L 320.278 320.635 320.155 319.164 C 320.035 317.738,319.984 317.694,318.465 317.694 L 316.899 317.694 316.899 329.026 L 316.899 340.358 318.688 340.358 L 320.477 340.358 320.477 333.073 C 320.477 322.490,321.391 320.522,326.472 320.154 C 328.616 319.999,328.826 320.068,330.275 321.395 L 331.809 322.801 331.942 331.579 L 332.075 340.358 333.831 340.358 L 335.586 340.358 335.577 332.107 C 335.567 323.439,335.320 321.376,334.099 319.740 C 332.444 317.523,328.101 316.440,324.952 317.460 M97.906 328.926 L 98.012 340.159 99.801 340.159 L 101.590 340.159 101.696 328.926 L 101.802 317.694 99.801 317.694 L 97.801 317.694 97.906 328.926 M107.753 318.390 C 107.975 318.772,109.610 322.932,111.386 327.634 C 115.804 339.327,116.103 340.130,116.103 340.275 C 116.103 340.344,116.927 340.347,117.933 340.280 L 119.763 340.159 123.103 331.213 C 124.941 326.292,126.597 321.909,126.785 321.471 C 126.973 321.034,127.417 320.005,127.771 319.185 L 128.417 317.694 126.525 317.694 L 124.633 317.694 123.574 320.577 C 122.992 322.162,121.692 325.785,120.686 328.628 C 118.009 336.195,118.139 335.937,117.460 335.009 C 117.151 334.587,116.899 334.006,116.899 333.718 C 116.899 333.253,115.230 328.465,112.251 320.378 L 111.262 317.694 109.306 317.694 C 107.554 317.694,107.391 317.767,107.753 318.390 M133.996 329.026 L 133.996 340.358 135.785 340.358 L 137.575 340.358 137.575 329.026 L 137.575 317.694 135.785 317.694 L 133.996 317.694 133.996 329.026 M198.809 317.992 C 198.810 318.156,200.673 323.211,202.949 329.225 L 207.088 340.159 208.876 340.279 L 210.663 340.398 211.453 338.291 C 211.887 337.131,213.782 332.101,215.664 327.112 C 217.546 322.124,219.085 317.964,219.085 317.868 C 219.085 317.772,218.308 317.694,217.357 317.694 L 215.628 317.694 213.972 322.167 C 213.061 324.627,211.632 328.599,210.795 330.992 C 208.984 336.175,208.728 336.354,207.767 333.109 C 207.361 331.738,206.799 330.080,206.517 329.423 C 206.235 328.767,205.443 326.620,204.757 324.652 C 202.107 317.044,202.500 317.694,200.542 317.694 C 199.588 317.694,198.808 317.828,198.809 317.992 M225.050 329.026 L 225.050 340.358 226.839 340.358 L 228.628 340.358 228.628 329.026 L 228.628 317.694 226.839 317.694 L 225.050 317.694 225.050 329.026 M278.330 329.026 L 278.330 340.358 280.119 340.358 L 281.909 340.358 281.909 329.026 L 281.909 317.694 280.119 317.694 L 278.330 317.694 278.330 329.026 M303.261 321.232 C 307.284 324.147,307.401 333.919,303.445 336.732 C 297.497 340.961,291.504 335.695,292.429 327.053 C 293.076 321.014,298.750 317.964,303.261 321.232 M251.690 331.265 C 251.690 336.585,245.783 340.220,241.441 337.573 C 237.232 335.007,239.254 331.380,245.540 330.221 C 247.720 329.819,249.861 329.352,250.298 329.184 C 251.636 328.669,251.690 328.749,251.690 331.265 M148.664 347.416 C 148.431 348.017,147.808 349.672,147.278 351.093 C 146.748 352.515,146.150 354.036,145.949 354.473 C 145.497 355.459,144.342 358.466,140.988 367.396 C 139.550 371.223,138.217 374.628,138.025 374.963 C 137.833 375.299,137.549 376.148,137.395 376.852 L 137.114 378.131 139.034 378.129 L 140.954 378.127 142.264 374.451 C 142.984 372.429,143.831 370.194,144.146 369.483 L 144.719 368.191 151.442 368.191 C 157.462 368.191,158.198 368.264,158.474 368.887 C 158.644 369.269,159.514 371.461,160.407 373.757 L 162.031 377.932 164.117 378.053 C 166.624 378.197,166.608 378.265,164.977 374.354 C 164.794 373.917,163.736 371.322,162.624 368.588 C 161.513 365.855,160.437 363.260,160.235 362.823 C 160.032 362.386,158.712 359.165,157.302 355.666 C 153.072 345.173,153.812 346.322,151.277 346.322 C 149.254 346.322,149.053 346.406,148.664 347.416 M216.700 362.227 L 216.700 378.131 218.290 378.131 C 219.287 378.131,219.888 377.946,219.901 377.634 C 219.911 377.361,219.911 374.722,219.900 371.769 C 219.858 361.097,221.204 358.021,226.114 357.563 C 230.808 357.126,231.738 359.179,231.779 370.080 L 231.809 378.131 233.400 378.131 L 234.990 378.131 234.990 368.973 C 234.990 362.042,234.855 359.493,234.436 358.489 C 232.806 354.587,226.542 353.323,222.484 356.076 C 220.005 357.759,219.819 357.421,219.958 351.494 L 220.080 346.321 218.390 346.321 L 216.700 346.322 216.700 362.227 M291.054 348.333 L 291.054 350.344 292.697 350.222 L 294.340 350.099 294.387 348.210 L 294.433 346.321 292.744 346.322 L 291.054 346.322 291.054 348.333 M203.483 348.051 C 202.019 348.893,201.996 348.945,201.992 351.359 C 201.987 354.655,201.782 355.070,200.156 355.070 C 198.922 355.070,198.807 355.171,198.807 356.262 C 198.807 357.304,198.949 357.455,199.920 357.455 C 201.926 357.455,201.988 357.744,201.988 367.108 L 201.988 375.807 203.150 376.969 C 204.201 378.020,204.565 378.131,206.952 378.131 L 209.591 378.131 209.467 376.645 C 209.352 375.261,209.240 375.142,207.833 374.915 C 205.398 374.523,205.380 374.460,205.244 366.155 C 205.106 357.694,205.170 357.455,207.603 357.455 C 210.248 357.455,209.925 355.163,207.256 354.992 L 205.368 354.871 205.169 351.033 L 204.970 347.196 203.483 348.051 M306.152 348.178 C 305.611 348.543,305.080 348.915,304.970 349.005 C 304.861 349.095,304.682 350.452,304.573 352.020 L 304.374 354.871 303.082 354.995 C 301.952 355.104,301.789 355.264,301.789 356.262 C 301.789 357.261,301.952 357.421,303.082 357.529 L 304.374 357.654 304.580 366.739 L 304.785 375.823 306.077 376.977 C 307.900 378.606,312.525 378.744,312.525 377.170 C 312.525 375.451,312.117 374.950,310.716 374.950 C 308.370 374.950,308.151 374.182,308.151 365.948 C 308.151 357.306,308.112 357.455,310.381 357.455 C 313.199 357.455,313.068 355.174,310.239 354.992 L 308.350 354.871 308.236 351.193 C 308.113 347.240,307.932 346.978,306.152 348.178 M152.740 353.312 C 154.044 357.005,154.475 358.180,155.863 361.829 C 156.321 363.032,156.732 364.195,156.777 364.414 C 156.828 364.659,154.768 364.853,151.392 364.922 C 147.910 364.992,145.924 364.887,145.924 364.632 C 145.924 364.233,146.869 361.559,147.546 360.040 C 148.155 358.674,150.298 352.370,150.298 351.946 C 150.298 351.276,151.102 349.379,151.302 349.579 C 151.404 349.681,152.052 351.361,152.740 353.312 M249.719 355.299 C 242.815 358.294,240.878 369.994,246.376 375.492 C 252.026 381.142,262.251 378.416,264.178 370.747 C 266.847 360.120,258.692 351.407,249.719 355.299 M277.887 356.262 C 276.061 358.182,276.027 358.187,275.870 356.561 C 275.756 355.381,275.616 355.258,274.254 355.145 L 272.763 355.022 272.763 366.576 L 272.763 378.131 274.553 378.131 L 276.342 378.131 276.344 370.875 C 276.347 360.247,277.306 358.038,281.798 358.312 L 284.059 358.449 284.448 357.105 C 285.303 354.150,280.485 353.531,277.887 356.262 M172.962 364.006 C 172.962 375.272,173.569 376.903,178.227 378.157 C 181.381 379.006,187.276 377.175,187.276 375.345 C 187.276 374.206,188.042 375.169,188.147 376.441 C 188.264 377.851,188.351 377.939,189.761 378.056 L 191.252 378.179 191.252 366.624 L 191.252 355.070 189.662 355.070 L 188.072 355.070 188.072 361.160 C 188.072 372.495,186.736 375.343,181.418 375.346 C 176.957 375.350,176.090 372.945,176.186 360.835 L 176.231 355.268 174.596 355.146 L 172.962 355.024 172.962 364.006 M291.054 366.578 L 291.054 378.131 292.644 378.131 C 293.519 378.131,294.238 377.952,294.241 377.734 C 294.245 377.515,294.252 372.371,294.257 366.302 L 294.265 355.268 292.660 355.146 L 291.054 355.024 291.054 366.578 M317.697 355.567 C 317.700 356.162,321.664 366.812,323.062 369.980 C 323.352 370.636,323.900 372.157,324.280 373.360 C 324.661 374.563,325.099 375.726,325.254 375.944 C 327.269 378.783,324.470 383.851,320.889 383.851 C 319.250 383.851,318.887 383.977,318.887 384.544 C 318.887 388.533,324.331 388.353,326.848 384.280 C 327.714 382.878,327.911 382.399,330.589 375.149 C 331.397 372.962,332.316 370.502,332.630 369.682 C 332.944 368.862,333.457 367.520,333.770 366.700 C 334.083 365.880,334.919 363.598,335.627 361.630 C 336.335 359.662,337.038 357.873,337.190 357.654 C 338.281 356.077,338.000 355.070,336.469 355.070 C 334.896 355.070,333.996 355.619,333.996 356.580 C 333.996 356.886,333.744 357.700,333.435 358.389 C 332.811 359.782,329.626 368.582,328.735 371.372 C 327.988 373.714,327.721 373.633,326.768 370.775 C 326.330 369.463,325.293 366.511,324.463 364.215 C 323.634 361.918,322.555 358.921,322.065 357.555 L 321.175 355.070 319.435 355.070 C 318.306 355.070,317.695 355.244,317.697 355.567 M256.587 357.901 C 263.871 361.644,261.941 375.400,254.118 375.506 C 249.419 375.570,247.114 372.633,247.126 366.600 C 247.140 359.600,251.711 355.397,256.587 357.901 " stroke="none" fill="#f0f1f6" fill-rule="evenodd"></path><path id="path2" d="M149.684 324.453 C 149.684 333.310,149.737 336.933,149.801 332.505 C 149.865 328.077,149.865 320.830,149.801 316.402 C 149.737 311.973,149.684 315.596,149.684 324.453 M224.766 310.736 C 224.769 311.829,224.846 312.229,224.937 311.625 C 225.029 311.020,225.026 310.126,224.932 309.637 C 224.838 309.148,224.763 309.642,224.766 310.736 M224.827 328.827 C 224.827 335.060,224.882 337.609,224.949 334.493 C 225.017 331.377,225.017 326.277,224.949 323.161 C 224.882 320.045,224.827 322.594,224.827 328.827 M261.233 318.863 C 261.233 319.506,261.374 320.120,261.547 320.227 C 261.720 320.334,261.790 319.808,261.702 319.058 C 261.507 317.387,261.233 317.273,261.233 318.863 M62.539 324.254 C 62.542 325.348,62.619 325.748,62.711 325.144 C 62.802 324.539,62.800 323.645,62.705 323.156 C 62.611 322.667,62.536 323.161,62.539 324.254 M335.755 332.207 C 335.755 336.799,335.813 338.623,335.883 336.261 C 335.954 333.898,335.954 330.140,335.883 327.911 C 335.812 325.681,335.754 327.614,335.755 332.207 M310.247 328.827 C 310.247 329.811,310.325 330.214,310.420 329.722 C 310.515 329.230,310.515 328.424,310.420 327.932 C 310.325 327.440,310.247 327.843,310.247 328.827 M269.284 341.030 C 269.667 341.130,270.293 341.130,270.676 341.030 C 271.059 340.930,270.746 340.848,269.980 340.848 C 269.215 340.848,268.902 340.930,269.284 341.030 M220.277 351.012 L 220.474 356.064 220.588 351.325 C 220.651 348.719,220.562 346.446,220.391 346.274 C 220.220 346.102,220.168 348.234,220.277 351.012 M304.302 351.889 C 304.302 353.310,304.374 353.892,304.463 353.181 C 304.551 352.470,304.551 351.307,304.463 350.596 C 304.374 349.886,304.302 350.467,304.302 351.889 M291.750 350.579 C 292.242 350.674,293.047 350.674,293.539 350.579 C 294.031 350.484,293.628 350.407,292.644 350.407 C 291.660 350.407,291.257 350.484,291.750 350.579 M312.219 356.262 C 312.219 357.028,312.301 357.341,312.401 356.958 C 312.501 356.576,312.501 355.949,312.401 355.567 C 312.301 355.184,312.219 355.497,312.219 356.262 M272.541 366.600 C 272.541 372.833,272.596 375.383,272.663 372.266 C 272.730 369.150,272.730 364.051,272.663 360.934 C 272.596 357.818,272.541 360.368,272.541 366.600 M253.380 357.729 C 253.762 357.829,254.389 357.829,254.771 357.729 C 255.154 357.629,254.841 357.548,254.076 357.548 C 253.310 357.548,252.997 357.629,253.380 357.729 M304.341 365.805 C 304.341 370.070,304.400 371.814,304.471 369.682 C 304.543 367.550,304.543 364.061,304.471 361.928 C 304.400 359.796,304.341 361.541,304.341 365.805 M220.442 370.577 C 220.442 374.404,220.501 375.969,220.574 374.056 C 220.647 372.142,220.647 369.011,220.574 367.097 C 220.501 365.184,220.442 366.750,220.442 370.577 M276.505 371.173 C 276.504 374.891,276.564 376.465,276.637 374.672 C 276.711 372.878,276.711 369.836,276.638 367.912 C 276.565 365.988,276.505 367.455,276.505 371.173 M179.821 378.803 C 180.204 378.903,180.830 378.903,181.213 378.803 C 181.595 378.703,181.282 378.621,180.517 378.621 C 179.751 378.621,179.438 378.703,179.821 378.803 M253.181 378.809 C 253.673 378.904,254.478 378.904,254.970 378.809 C 255.462 378.715,255.060 378.637,254.076 378.637 C 253.091 378.637,252.689 378.715,253.181 378.809 " stroke="none" fill="#8b94bc" fill-rule="evenodd"></path><path id="path3" d="M76.844 308.039 C 77.449 308.130,78.343 308.128,78.833 308.033 C 79.322 307.939,78.827 307.864,77.734 307.867 C 76.640 307.870,76.240 307.947,76.844 308.039 M137.644 310.416 L 137.575 312.481 135.686 312.630 L 133.797 312.779 135.698 312.851 C 137.884 312.933,138.097 312.662,137.868 310.085 C 137.714 308.351,137.713 308.352,137.644 310.416 M228.698 310.416 L 228.628 312.481 226.740 312.630 L 224.851 312.779 226.752 312.851 C 228.938 312.933,229.151 312.662,228.922 310.085 C 228.767 308.351,228.767 308.352,228.698 310.416 M145.719 324.851 L 145.726 340.557 147.617 340.593 L 149.508 340.630 147.721 340.472 L 145.934 340.315 145.823 324.730 L 145.712 309.145 145.719 324.851 M278.091 310.736 L 278.131 312.724 279.920 312.756 L 281.710 312.789 280.041 312.636 L 278.372 312.483 278.211 310.615 L 278.050 308.748 278.091 310.736 M268.137 313.121 C 268.138 315.308,268.205 316.152,268.286 314.997 C 268.366 313.841,268.365 312.052,268.284 311.020 C 268.202 309.989,268.136 310.934,268.137 313.121 M66.973 312.227 L 65.805 313.519 67.097 312.351 C 68.302 311.262,68.572 310.934,68.265 310.934 C 68.197 310.934,67.615 311.516,66.973 312.227 M76.234 311.619 C 76.940 311.707,78.192 311.708,79.017 311.622 C 79.842 311.536,79.264 311.464,77.734 311.462 C 76.203 311.461,75.528 311.531,76.234 311.619 M180.771 312.403 C 180.337 312.837,180.490 313.188,181.113 313.188 C 181.441 313.188,181.710 313.049,181.710 312.880 C 181.710 312.432,181.068 312.106,180.771 312.403 M82.704 312.649 C 82.704 312.718,83.285 313.299,83.996 313.942 L 85.288 315.109 84.120 313.817 C 83.032 312.613,82.704 312.342,82.704 312.649 M98.708 312.810 C 99.309 312.901,100.293 312.901,100.895 312.810 C 101.496 312.719,101.004 312.644,99.801 312.644 C 98.598 312.644,98.106 312.719,98.708 312.810 M262.823 317.296 L 261.431 317.589 262.700 317.641 C 263.398 317.670,264.080 317.515,264.215 317.296 C 264.350 317.078,264.405 316.922,264.338 316.951 C 264.270 316.980,263.588 317.135,262.823 317.296 M98.708 317.581 C 99.309 317.672,100.293 317.672,100.895 317.581 C 101.496 317.490,101.004 317.415,99.801 317.415 C 98.598 317.415,98.106 317.490,98.708 317.581 M109.137 317.580 C 110.227 317.671,111.269 317.957,111.454 318.216 C 111.688 318.544,111.741 318.506,111.629 318.091 C 111.513 317.661,110.868 317.484,109.313 317.455 L 107.157 317.415 109.137 317.580 M125.348 317.581 C 125.949 317.672,126.933 317.672,127.535 317.581 C 128.136 317.490,127.644 317.415,126.441 317.415 C 125.239 317.415,124.747 317.490,125.348 317.581 M135.686 317.576 L 137.575 317.737 137.575 329.026 L 137.575 340.314 135.783 340.472 L 133.991 340.630 135.882 340.593 L 137.773 340.557 137.773 329.026 L 137.773 317.495 135.785 317.454 L 133.797 317.414 135.686 317.576 M198.416 317.992 C 198.420 318.455,198.522 318.531,198.720 318.218 C 198.885 317.960,199.821 317.678,200.802 317.592 L 202.584 317.435 200.497 317.366 C 198.746 317.307,198.411 317.408,198.416 317.992 M215.374 317.561 C 215.229 317.707,215.112 318.020,215.115 318.257 C 215.119 318.494,215.276 318.444,215.464 318.147 C 215.696 317.782,216.392 317.653,217.607 317.749 C 218.597 317.828,219.324 317.758,219.223 317.594 C 218.995 317.225,215.738 317.197,215.374 317.561 M226.740 317.576 L 228.628 317.737 228.628 329.026 L 228.628 340.314 226.836 340.472 L 225.045 340.630 226.936 340.593 L 228.827 340.557 228.827 329.026 L 228.827 317.495 226.839 317.454 L 224.851 317.414 226.740 317.576 M270.375 317.578 C 272.871 317.831,272.792 319.961,270.278 320.190 L 268.588 320.343 270.378 320.311 C 273.119 320.261,273.212 317.519,270.474 317.456 L 268.781 317.417 270.375 317.578 M278.112 317.799 C 278.006 318.075,277.967 323.309,278.025 329.429 L 278.131 340.557 280.022 340.593 L 281.914 340.630 280.122 340.472 L 278.330 340.314 278.330 329.026 L 278.330 317.737 280.219 317.588 L 282.107 317.440 280.206 317.368 C 278.984 317.322,278.236 317.476,278.112 317.799 M318.461 317.577 C 319.518 317.685,320.083 317.957,320.193 318.411 C 320.308 318.887,320.345 318.851,320.317 318.290 C 320.285 317.632,319.986 317.488,318.586 317.456 L 316.893 317.417 318.461 317.577 M261.969 320.180 C 262.170 320.381,262.757 320.478,263.274 320.397 C 264.070 320.271,264.014 320.215,262.910 320.032 C 262.120 319.901,261.749 319.960,261.969 320.180 M268.156 327.634 C 268.156 331.461,268.215 333.027,268.288 331.113 C 268.361 329.200,268.361 326.069,268.288 324.155 C 268.215 322.242,268.156 323.807,268.156 327.634 M66.899 324.254 C 66.904 325.129,66.985 325.440,67.080 324.946 C 67.176 324.451,67.172 323.735,67.072 323.355 C 66.973 322.975,66.895 323.380,66.899 324.254 M331.796 332.505 L 331.809 340.557 333.797 340.597 L 335.785 340.638 333.905 340.476 L 332.024 340.315 331.904 332.384 L 331.784 324.453 331.796 332.505 M320.567 332.682 L 320.477 340.314 318.588 340.463 L 316.700 340.612 318.601 340.684 C 321.017 340.775,320.916 341.160,320.775 332.393 L 320.657 325.050 320.567 332.682 M186.290 326.342 C 186.534 327.234,186.521 327.237,181.240 327.323 L 175.944 327.409 181.081 327.534 C 186.415 327.664,187.291 327.445,186.503 326.181 C 186.090 325.519,186.069 325.534,186.290 326.342 M292.370 329.026 C 292.372 330.338,292.446 330.827,292.535 330.112 C 292.623 329.398,292.621 328.324,292.531 327.726 C 292.440 327.129,292.367 327.714,292.370 329.026 M288.371 329.026 C 288.375 329.901,288.456 330.212,288.552 329.717 C 288.647 329.222,288.643 328.507,288.544 328.127 C 288.444 327.746,288.366 328.151,288.371 329.026 M87.056 337.475 L 85.686 338.966 87.177 337.596 C 88.565 336.321,88.851 335.984,88.547 335.984 C 88.481 335.984,87.810 336.655,87.056 337.475 M242.193 338.009 C 242.496 338.201,243.549 338.346,244.533 338.332 C 246.653 338.302,246.278 338.111,243.585 337.849 C 242.388 337.733,241.854 337.794,242.193 338.009 M166.778 339.597 C 166.295 340.378,167.252 340.806,169.198 340.680 C 170.348 340.606,171.151 340.355,171.211 340.050 C 171.267 339.771,171.221 339.726,171.110 339.950 C 170.761 340.655,166.870 340.470,167.142 339.761 C 167.407 339.070,167.170 338.963,166.778 339.597 M196.024 339.939 C 196.024 340.147,195.084 340.382,193.936 340.462 L 191.849 340.608 194.135 340.682 C 195.935 340.740,196.421 340.629,196.421 340.159 C 196.421 339.831,196.332 339.563,196.223 339.563 C 196.113 339.563,196.024 339.732,196.024 339.939 M252.585 339.960 C 252.762 340.618,255.937 341.041,256.497 340.481 C 256.676 340.303,256.003 340.221,255.002 340.301 C 253.781 340.398,253.058 340.268,252.804 339.905 C 252.496 339.466,252.455 339.476,252.585 339.960 M98.073 340.457 C 98.175 340.621,98.952 340.755,99.801 340.755 C 100.650 340.755,101.428 340.621,101.529 340.457 C 101.630 340.293,100.853 340.159,99.801 340.159 C 98.750 340.159,97.972 340.293,98.073 340.457 M117.893 340.358 L 115.905 340.631 117.770 340.693 C 118.796 340.727,119.746 340.577,119.881 340.358 C 120.016 340.139,120.071 339.988,120.004 340.023 C 119.936 340.057,118.986 340.208,117.893 340.358 M207.122 340.483 C 207.301 340.661,208.231 340.747,209.191 340.674 L 210.934 340.542 208.866 340.351 C 207.729 340.245,206.944 340.305,207.122 340.483 M148.968 346.223 C 148.867 346.387,149.913 346.521,151.292 346.521 C 152.672 346.521,153.718 346.387,153.616 346.223 C 153.515 346.059,152.469 345.924,151.292 345.924 C 150.115 345.924,149.069 346.059,148.968 346.223 M216.484 346.422 C 216.379 346.696,216.342 353.987,216.402 362.625 L 216.510 378.330 216.605 362.349 L 216.700 346.368 218.390 346.216 L 220.080 346.063 218.377 345.994 C 217.325 345.951,216.602 346.114,216.484 346.422 M290.817 346.475 C 290.701 346.778,290.675 347.807,290.760 348.762 C 290.915 350.496,290.915 350.496,290.984 348.432 L 291.054 346.368 292.744 346.216 L 294.433 346.063 292.731 345.994 C 291.596 345.948,290.958 346.108,290.817 346.475 M219.952 351.567 C 219.913 354.342,220.015 356.697,220.179 356.799 C 220.343 356.901,220.429 355.435,220.371 353.542 C 220.174 347.188,220.025 346.483,219.952 351.567 M294.335 348.111 C 294.339 348.986,294.421 349.297,294.516 348.803 C 294.611 348.308,294.607 347.592,294.508 347.212 C 294.408 346.832,294.330 347.237,294.335 348.111 M205.345 350.993 L 205.368 354.871 207.256 354.992 C 209.951 355.165,210.196 357.303,207.552 357.571 L 205.958 357.732 207.651 357.693 C 210.443 357.629,210.276 354.931,207.469 354.750 L 205.595 354.630 205.459 350.872 L 205.322 347.115 205.345 350.993 M307.637 347.435 C 307.939 347.626,308.161 349.069,308.234 351.305 L 308.350 354.871 310.241 354.907 L 312.132 354.944 310.341 354.786 L 308.549 354.628 308.549 350.873 C 308.549 347.559,308.467 347.118,307.853 347.123 C 307.376 347.128,307.308 347.226,307.637 347.435 M201.721 351.690 C 201.723 353.221,201.795 353.798,201.881 352.973 C 201.967 352.148,201.965 350.896,201.877 350.190 C 201.790 349.484,201.719 350.159,201.721 351.690 M226.541 354.555 C 227.033 354.650,227.838 354.650,228.330 354.555 C 228.822 354.460,228.419 354.383,227.435 354.383 C 226.451 354.383,226.049 354.460,226.541 354.555 M252.982 354.559 C 253.583 354.650,254.568 354.650,255.169 354.559 C 255.770 354.468,255.278 354.394,254.076 354.394 C 252.873 354.394,252.381 354.468,252.982 354.559 M303.181 354.672 L 301.988 354.975 303.058 355.023 C 303.647 355.048,304.239 354.891,304.374 354.672 C 304.509 354.453,304.564 354.296,304.497 354.321 C 304.429 354.347,303.837 354.505,303.181 354.672 M172.742 355.180 C 172.635 355.459,172.600 359.351,172.664 363.828 L 172.781 371.968 172.872 363.479 L 172.962 354.990 174.714 355.129 C 175.677 355.206,176.382 355.134,176.281 354.970 C 175.964 354.458,172.951 354.637,172.742 355.180 M187.859 355.162 C 187.745 355.457,187.707 358.554,187.774 362.044 L 187.894 368.390 187.983 361.730 L 188.072 355.070 189.656 355.070 L 191.240 355.070 191.355 366.601 L 191.470 378.131 191.460 366.501 L 191.451 354.871 189.758 354.748 C 188.613 354.666,187.998 354.799,187.859 355.162 M199.702 354.946 C 200.084 355.046,200.711 355.046,201.093 354.946 C 201.476 354.846,201.163 354.764,200.398 354.764 C 199.632 354.764,199.319 354.846,199.702 354.946 M273.955 354.967 C 274.719 355.059,275.614 355.344,275.943 355.599 C 276.464 356.004,276.470 355.974,275.995 355.368 C 275.632 354.905,274.965 354.693,274.007 354.736 L 272.565 354.799 273.955 354.967 M290.836 355.174 C 290.730 355.450,290.694 360.773,290.756 367.003 L 290.868 378.330 290.961 366.660 L 291.054 354.990 292.805 355.129 C 293.768 355.206,294.473 355.134,294.372 354.970 C 294.058 354.462,291.042 354.636,290.836 355.174 M317.561 354.937 C 317.416 355.083,317.299 355.396,317.302 355.633 C 317.306 355.911,317.414 355.898,317.606 355.596 C 317.769 355.339,318.616 355.056,319.488 354.967 L 321.074 354.806 319.450 354.739 C 318.557 354.702,317.707 354.791,317.561 354.937 M334.362 355.368 C 333.914 355.960,333.919 355.989,334.393 355.567 C 335.457 354.618,338.066 354.924,337.781 355.964 C 337.569 356.739,337.595 356.766,337.975 356.160 C 338.921 354.650,335.477 353.895,334.362 355.368 M301.552 356.655 C 301.584 357.479,301.838 357.685,303.065 357.882 C 303.875 358.013,304.446 357.970,304.333 357.788 C 304.220 357.605,303.614 357.455,302.985 357.455 C 302.113 357.455,301.803 357.243,301.678 356.561 C 301.534 355.776,301.518 355.788,301.552 356.655 M176.303 361.829 C 176.303 365.219,176.364 366.605,176.439 364.911 C 176.513 363.216,176.513 360.442,176.439 358.748 C 176.364 357.053,176.303 358.439,176.303 361.829 M294.409 366.402 C 294.408 372.306,294.464 374.777,294.532 371.893 C 294.599 369.008,294.600 364.177,294.532 361.157 C 294.464 358.137,294.409 360.497,294.409 366.402 M260.437 356.387 C 260.437 356.455,261.019 357.037,261.730 357.679 L 263.022 358.847 261.854 357.555 C 260.765 356.350,260.437 356.080,260.437 356.387 M200.000 357.806 L 201.392 358.052 201.602 366.600 L 201.813 375.149 201.901 366.779 C 201.996 357.669,201.939 357.416,199.821 357.508 C 198.618 357.560,198.619 357.562,200.000 357.806 M225.746 357.736 C 226.238 357.831,227.043 357.831,227.535 357.736 C 228.027 357.641,227.624 357.564,226.640 357.564 C 225.656 357.564,225.253 357.641,225.746 357.736 M309.449 357.741 C 310.053 357.832,310.948 357.830,311.437 357.735 C 311.926 357.641,311.431 357.566,310.338 357.569 C 309.245 357.572,308.844 357.649,309.449 357.741 M205.335 365.606 C 205.335 369.761,205.394 371.407,205.466 369.264 C 205.537 367.120,205.537 363.720,205.465 361.709 C 205.393 359.697,205.334 361.451,205.335 365.606 M308.318 365.805 C 308.318 370.070,308.376 371.814,308.448 369.682 C 308.519 367.550,308.519 364.061,308.448 361.928 C 308.376 359.796,308.318 361.541,308.318 365.805 M235.161 369.185 C 235.161 374.215,235.218 376.218,235.287 373.636 C 235.357 371.054,235.356 366.938,235.287 364.490 C 235.217 362.043,235.160 364.155,235.161 369.185 M231.580 369.980 C 231.580 374.573,231.638 376.397,231.708 374.034 C 231.779 371.671,231.779 367.914,231.708 365.684 C 231.637 363.454,231.580 365.388,231.580 369.980 M243.066 366.402 C 243.068 367.714,243.142 368.203,243.231 367.488 C 243.319 366.773,243.317 365.700,243.226 365.102 C 243.136 364.505,243.063 365.089,243.066 366.402 M247.046 366.600 C 247.046 368.022,247.118 368.603,247.206 367.893 C 247.294 367.182,247.294 366.019,247.206 365.308 C 247.118 364.597,247.046 365.179,247.046 366.600 M220.040 371.173 C 220.040 374.453,220.102 375.742,220.177 374.037 C 220.251 372.333,220.251 369.649,220.176 368.073 C 220.100 366.498,220.039 367.893,220.040 371.173 M144.593 368.489 C 144.491 368.653,146.494 368.740,149.043 368.683 C 157.595 368.491,158.501 368.345,151.614 368.267 C 147.854 368.225,144.695 368.325,144.593 368.489 M206.759 374.708 C 206.759 374.793,207.373 374.935,208.123 375.023 C 208.873 375.110,209.399 375.040,209.293 374.867 C 209.100 374.556,206.759 374.409,206.759 374.708 M310.533 374.833 C 311.297 374.933,312.071 375.224,312.253 375.480 C 312.480 375.797,312.534 375.755,312.425 375.348 C 312.320 374.959,311.723 374.734,310.705 374.701 C 309.211 374.652,309.203 374.658,310.533 374.833 M206.262 378.412 C 206.754 378.507,207.560 378.507,208.052 378.412 C 208.544 378.317,208.141 378.240,207.157 378.240 C 206.173 378.240,205.770 378.317,206.262 378.412 M309.051 378.417 C 309.656 378.508,310.550 378.505,311.039 378.411 C 311.528 378.317,311.034 378.242,309.940 378.245 C 308.847 378.248,308.447 378.325,309.051 378.417 M320.974 387.550 C 321.357 387.650,321.983 387.650,322.366 387.550 C 322.749 387.450,322.435 387.369,321.670 387.369 C 320.905 387.369,320.591 387.450,320.974 387.550 " stroke="none" fill="#949cc4" fill-rule="evenodd"></path><path id="path4" d="M73.360 308.151 C 72.859 308.366,72.785 308.493,73.161 308.493 C 73.489 308.493,74.115 308.339,74.553 308.151 C 75.054 307.936,75.127 307.809,74.751 307.809 C 74.423 307.809,73.797 307.963,73.360 308.151 M97.586 308.678 C 97.466 308.990,97.423 310.118,97.491 311.184 L 97.614 313.121 99.704 313.156 L 101.794 313.190 99.803 313.036 L 97.813 312.881 97.813 310.715 L 97.813 308.549 99.780 308.549 L 101.748 308.549 101.906 310.636 L 102.064 312.724 102.026 310.537 L 101.988 308.350 99.896 308.230 C 98.365 308.142,97.746 308.262,97.586 308.678 M133.769 308.678 C 133.649 308.990,133.606 310.118,133.674 311.184 L 133.797 313.121 135.984 313.121 L 138.171 313.121 138.171 310.736 L 138.171 308.350 136.079 308.230 C 134.548 308.142,133.929 308.262,133.769 308.678 M146.421 308.436 C 147.023 308.527,148.007 308.527,148.608 308.436 C 149.210 308.345,148.718 308.270,147.515 308.270 C 146.312 308.270,145.820 308.345,146.421 308.436 M180.020 308.439 C 180.731 308.527,181.894 308.527,182.604 308.439 C 183.315 308.351,182.734 308.278,181.312 308.278 C 179.891 308.278,179.309 308.351,180.020 308.439 M224.908 308.457 C 224.804 308.625,225.464 308.705,226.375 308.634 C 229.051 308.428,229.377 308.247,227.161 308.197 C 226.025 308.172,225.012 308.289,224.908 308.457 M279.821 308.432 L 281.909 308.590 281.909 310.778 L 281.909 312.966 280.020 312.845 L 278.131 312.724 277.895 310.736 L 277.660 308.748 277.603 310.537 C 277.524 313.045,277.851 313.391,280.158 313.245 L 282.107 313.121 282.107 310.736 L 282.107 308.350 279.920 308.312 L 277.734 308.274 279.821 308.432 M137.972 310.736 L 137.972 312.922 135.984 312.922 L 133.996 312.922 133.996 310.736 L 133.996 308.549 135.984 308.549 L 137.972 308.549 137.972 310.736 M229.140 310.736 C 229.143 311.829,229.220 312.229,229.311 311.625 C 229.403 311.020,229.400 310.126,229.306 309.637 C 229.211 309.148,229.137 309.642,229.140 310.736 M268.390 313.059 L 268.588 317.097 270.378 317.130 L 272.167 317.162 270.477 317.009 L 268.787 316.855 268.787 313.123 C 268.787 311.070,268.653 309.307,268.489 309.205 C 268.325 309.103,268.280 310.837,268.390 313.059 M264.281 311.199 C 264.135 311.345,264.016 312.687,264.016 314.182 L 264.016 316.899 262.847 316.899 C 262.203 316.899,261.585 317.048,261.472 317.231 C 261.359 317.414,261.930 317.456,262.741 317.325 L 264.215 317.087 264.414 314.010 C 264.523 312.318,264.597 310.933,264.579 310.934 C 264.561 310.934,264.427 311.054,264.281 311.199 M225.013 313.046 C 225.191 313.223,226.211 313.310,227.281 313.238 L 229.225 313.109 226.957 312.916 C 225.710 312.810,224.835 312.869,225.013 313.046 M180.554 314.180 C 180.313 314.872,180.197 315.519,180.297 315.618 C 180.397 315.718,180.595 315.332,180.739 314.761 C 180.882 314.190,181.159 313.822,181.355 313.943 C 181.550 314.063,181.710 313.983,181.710 313.765 C 181.710 312.773,180.949 313.046,180.554 314.180 M245.220 316.788 C 245.926 316.876,247.178 316.877,248.003 316.791 C 248.828 316.705,248.250 316.633,246.720 316.631 C 245.189 316.630,244.514 316.700,245.220 316.788 M298.310 316.786 C 298.912 316.877,299.896 316.877,300.497 316.786 C 301.098 316.695,300.606 316.620,299.404 316.620 C 298.201 316.620,297.709 316.695,298.310 316.786 M326.944 316.786 C 327.548 316.878,328.443 316.875,328.932 316.781 C 329.421 316.687,328.926 316.612,327.833 316.615 C 326.740 316.618,326.339 316.695,326.944 316.786 M97.596 317.400 C 97.490 317.676,97.453 323.089,97.515 329.428 L 97.627 340.954 97.720 329.146 L 97.813 317.338 99.901 317.192 L 101.988 317.046 99.888 316.972 C 98.506 316.924,97.722 317.070,97.596 317.400 M107.223 317.164 C 107.078 317.309,106.961 317.623,106.964 317.860 C 106.968 318.096,107.124 318.048,107.312 317.751 C 107.547 317.381,108.277 317.257,109.654 317.354 C 110.754 317.432,111.572 317.361,111.470 317.197 C 111.241 316.828,107.588 316.799,107.223 317.164 M124.327 317.177 C 124.219 317.352,125.031 317.432,126.131 317.354 C 127.498 317.257,128.252 317.384,128.510 317.751 C 128.815 318.187,128.857 318.176,128.727 317.694 C 128.552 317.047,124.690 316.593,124.327 317.177 M133.787 317.380 C 133.676 317.667,133.636 323.089,133.698 329.428 L 133.810 340.954 133.903 329.125 L 133.996 317.296 135.978 317.296 L 137.960 317.296 138.075 328.926 L 138.189 340.557 138.180 328.827 L 138.171 317.097 136.079 316.977 C 134.627 316.894,133.926 317.017,133.787 317.380 M198.165 317.471 C 198.044 317.786,198.142 318.367,198.382 318.763 C 198.742 319.358,198.773 319.285,198.561 318.350 L 198.303 317.216 200.506 317.356 C 201.718 317.432,202.626 317.361,202.524 317.197 C 202.169 316.626,198.398 316.863,198.165 317.471 M215.365 317.204 C 215.261 317.372,215.922 317.452,216.833 317.382 C 219.508 317.176,219.834 316.994,217.618 316.945 C 216.483 316.919,215.469 317.036,215.365 317.204 M224.908 317.204 C 224.804 317.372,225.464 317.452,226.375 317.382 C 229.051 317.176,229.377 316.994,227.161 316.945 C 226.025 316.919,225.012 317.036,224.908 317.204 M278.030 317.358 C 277.475 317.912,277.286 340.157,277.833 340.495 C 277.997 340.597,278.131 335.463,278.131 329.087 L 278.131 317.495 280.014 317.374 L 281.897 317.253 282.011 329.104 L 282.126 340.954 282.117 329.026 L 282.107 317.097 280.316 316.980 C 279.267 316.912,278.320 317.068,278.030 317.358 M316.681 317.400 C 316.575 317.676,316.539 323.089,316.600 329.428 L 316.712 340.954 316.806 329.125 L 316.899 317.296 318.502 317.296 C 319.793 317.296,320.175 317.470,320.465 318.191 C 320.685 318.740,320.834 318.847,320.850 318.469 C 320.907 317.061,317.178 316.105,316.681 317.400 M101.965 329.026 C 101.965 335.368,102.020 337.907,102.087 334.668 C 102.154 331.429,102.154 326.240,102.086 323.137 C 102.019 320.034,101.965 322.684,101.965 329.026 M229.201 329.026 C 229.202 335.368,229.256 337.907,229.323 334.668 C 229.390 331.429,229.390 326.240,229.323 323.137 C 229.256 320.034,229.201 322.684,229.201 329.026 M272.342 318.887 C 272.176 320.208,272.077 320.288,270.378 320.477 L 268.588 320.676 268.575 328.330 L 268.562 335.985 268.683 328.430 L 268.804 320.875 270.338 320.875 C 272.143 320.875,272.879 320.160,272.669 318.613 C 272.527 317.560,272.508 317.576,272.342 318.887 M333.995 319.185 C 334.515 319.896,335.003 320.477,335.079 320.477 C 335.381 320.477,334.395 318.986,333.743 318.456 C 333.313 318.108,333.409 318.385,333.995 319.185 M245.030 320.364 C 245.631 320.455,246.615 320.455,247.217 320.364 C 247.818 320.273,247.326 320.199,246.123 320.199 C 244.920 320.199,244.428 320.273,245.030 320.364 M298.509 320.360 C 299.001 320.455,299.806 320.455,300.298 320.360 C 300.790 320.265,300.388 320.188,299.404 320.188 C 298.419 320.188,298.017 320.265,298.509 320.360 M263.113 320.763 C 263.991 320.924,264.001 321.007,264.119 328.952 L 264.239 336.978 264.227 328.827 L 264.215 320.676 263.221 320.638 C 262.372 320.605,262.356 320.623,263.113 320.763 M67.340 324.453 C 67.340 326.531,67.407 327.381,67.489 326.342 C 67.571 325.303,67.571 323.603,67.489 322.565 C 67.407 321.526,67.340 322.376,67.340 324.453 M255.830 329.026 C 255.831 332.962,255.890 334.519,255.963 332.485 C 256.035 330.451,256.034 327.230,255.962 325.328 C 255.889 323.425,255.830 325.089,255.830 329.026 M251.261 324.552 C 251.142 325.407,251.203 325.894,251.403 325.694 C 251.595 325.502,251.688 324.832,251.610 324.204 C 251.479 323.152,251.451 323.180,251.261 324.552 M331.305 324.453 C 331.305 325.219,331.387 325.532,331.487 325.149 C 331.587 324.766,331.587 324.140,331.487 323.757 C 331.387 323.375,331.305 323.688,331.305 324.453 M309.998 325.646 C 310.313 327.361,310.539 327.684,310.531 326.408 C 310.527 325.880,310.349 325.179,310.134 324.851 C 309.859 324.431,309.818 324.667,309.998 325.646 M305.896 329.026 C 305.898 330.557,305.970 331.134,306.056 330.309 C 306.142 329.484,306.140 328.232,306.052 327.526 C 305.965 326.820,305.894 327.495,305.896 329.026 M251.401 330.815 C 251.401 331.799,251.478 332.202,251.573 331.710 C 251.668 331.218,251.668 330.413,251.573 329.920 C 251.478 329.428,251.401 329.831,251.401 330.815 M89.463 329.906 C 89.791 330.028,90.417 330.292,90.855 330.493 C 91.637 330.853,91.638 330.849,90.878 330.241 C 90.454 329.901,89.828 329.636,89.487 329.654 C 88.951 329.681,88.948 329.715,89.463 329.906 M181.085 331.113 C 185.305 331.193,187.627 331.396,188.043 331.720 C 188.594 332.149,188.603 332.124,188.122 331.511 C 187.637 330.893,186.863 330.825,181.164 330.904 L 174.751 330.992 181.085 331.113 M207.966 332.877 C 207.907 334.020,208.829 335.343,209.210 334.662 C 209.433 334.263,209.510 333.831,209.380 333.701 C 209.251 333.572,209.139 333.719,209.131 334.029 C 209.123 334.339,208.861 334.145,208.549 333.598 C 208.236 333.052,207.974 332.727,207.966 332.877 M70.180 334.328 C 70.835 335.058,71.730 335.840,72.167 336.067 C 72.604 336.294,72.783 336.322,72.565 336.131 C 72.346 335.940,71.452 335.157,70.577 334.393 L 68.988 333.002 70.180 334.328 M83.673 334.891 L 82.505 336.183 83.797 335.015 C 85.002 333.926,85.272 333.598,84.965 333.598 C 84.897 333.598,84.315 334.180,83.673 334.891 M293.751 334.597 C 293.977 335.037,294.580 335.751,295.092 336.185 C 295.991 336.945,295.989 336.931,295.036 335.782 C 293.452 333.875,293.319 333.752,293.751 334.597 M87.056 337.873 L 85.686 339.364 87.177 337.994 C 88.565 336.718,88.851 336.382,88.547 336.382 C 88.481 336.382,87.810 337.053,87.056 337.873 M270.772 337.059 C 271.535 337.160,272.309 337.451,272.492 337.706 C 272.718 338.023,272.773 337.981,272.664 337.575 C 272.559 337.185,271.962 336.961,270.943 336.927 C 269.449 336.879,269.442 336.885,270.772 337.059 M76.447 337.462 C 77.051 337.554,77.946 337.551,78.435 337.457 C 78.924 337.362,78.429 337.288,77.336 337.291 C 76.243 337.294,75.842 337.371,76.447 337.462 M243.445 337.860 C 244.049 337.951,244.944 337.949,245.433 337.854 C 245.922 337.760,245.427 337.685,244.334 337.688 C 243.241 337.691,242.840 337.768,243.445 337.860 M76.044 341.443 C 76.864 341.529,78.206 341.529,79.026 341.443 C 79.846 341.357,79.175 341.287,77.535 341.287 C 75.895 341.287,75.224 341.357,76.044 341.443 M242.452 341.441 C 243.167 341.530,244.241 341.528,244.838 341.437 C 245.436 341.346,244.851 341.274,243.539 341.276 C 242.227 341.279,241.738 341.353,242.452 341.441 M298.118 341.441 C 298.833 341.530,299.907 341.528,300.504 341.437 C 301.102 341.346,300.517 341.274,299.205 341.276 C 297.893 341.279,297.404 341.353,298.118 341.441 M148.787 346.004 C 148.525 346.266,148.316 346.669,148.322 346.899 C 148.329 347.128,148.517 347.003,148.740 346.620 C 149.473 345.361,153.304 345.648,154.047 347.018 C 154.373 347.619,154.647 347.927,154.656 347.703 C 154.727 345.874,150.222 344.570,148.787 346.004 M217.097 345.749 C 218.575 346.070,220.602 346.127,220.426 345.841 C 220.319 345.668,219.392 345.548,218.366 345.573 C 217.340 345.598,216.769 345.677,217.097 345.749 M291.954 345.812 C 292.558 345.904,293.453 345.901,293.942 345.807 C 294.431 345.712,293.936 345.638,292.843 345.641 C 291.750 345.644,291.349 345.721,291.954 345.812 M290.305 347.988 C 290.279 349.233,290.393 350.334,290.557 350.436 C 290.721 350.537,290.801 349.787,290.736 348.769 C 290.550 345.865,290.355 345.513,290.305 347.988 M294.626 348.391 C 294.520 349.638,294.578 350.513,294.756 350.335 C 294.933 350.157,295.020 349.137,294.948 348.067 L 294.818 346.123 294.626 348.391 M306.736 347.338 C 305.977 347.947,305.977 347.951,306.759 347.591 C 307.197 347.389,307.823 347.125,308.151 347.004 C 308.666 346.813,308.663 346.778,308.128 346.751 C 307.787 346.734,307.161 346.998,306.736 347.338 M201.188 351.771 C 201.081 353.347,201.137 354.492,201.313 354.315 C 201.488 354.139,201.575 352.850,201.507 351.451 L 201.383 348.907 201.188 351.771 M226.541 354.157 C 227.033 354.252,227.838 354.252,228.330 354.157 C 228.822 354.063,228.419 353.985,227.435 353.985 C 226.451 353.985,226.049 354.063,226.541 354.157 M252.988 354.162 C 253.592 354.253,254.487 354.251,254.976 354.157 C 255.465 354.062,254.970 353.987,253.877 353.990 C 252.783 353.993,252.383 354.071,252.988 354.162 M176.706 362.028 C 176.707 366.183,176.766 367.829,176.837 365.685 C 176.909 363.542,176.909 360.142,176.837 358.130 C 176.765 356.119,176.706 357.873,176.706 362.028 M187.352 361.531 C 187.428 368.526,187.583 367.715,187.769 359.343 C 187.826 356.773,187.739 354.671,187.575 354.671 C 187.411 354.672,187.310 357.758,187.352 361.531 M209.511 356.163 C 209.701 357.536,209.729 357.563,209.860 356.512 C 209.938 355.884,209.846 355.213,209.654 355.022 C 209.454 354.821,209.393 355.309,209.511 356.163 M290.352 366.501 L 290.457 378.330 292.644 378.330 L 294.831 378.330 294.840 366.700 L 294.849 355.069 294.735 366.600 L 294.620 378.131 292.627 378.131 L 290.633 378.131 290.744 366.401 C 290.805 359.950,290.718 354.672,290.551 354.672 C 290.383 354.672,290.294 359.995,290.352 366.501 M172.331 362.425 C 172.332 366.362,172.391 367.918,172.464 365.884 C 172.536 363.851,172.535 360.630,172.463 358.727 C 172.390 356.825,172.331 358.489,172.331 362.425 M301.041 356.131 C 300.952 357.766,301.396 358.253,302.925 358.198 L 304.374 358.146 302.985 357.900 C 301.845 357.698,301.551 357.440,301.342 356.461 C 301.158 355.597,301.075 355.506,301.041 356.131 M312.476 356.461 C 312.340 357.544,312.161 357.676,310.537 357.893 L 308.748 358.131 310.629 358.191 C 312.557 358.252,313.381 357.343,312.813 355.782 C 312.710 355.500,312.558 355.805,312.476 356.461 M261.630 357.256 C 262.372 358.022,263.069 358.648,263.178 358.648 C 263.287 358.648,262.770 358.022,262.028 357.256 C 261.286 356.491,260.590 355.865,260.480 355.865 C 260.371 355.865,260.888 356.491,261.630 357.256 M198.649 357.918 C 198.762 358.101,199.377 358.250,200.015 358.250 L 201.177 358.250 201.296 366.302 L 201.416 374.354 201.404 366.209 L 201.392 358.065 199.918 357.825 C 199.107 357.694,198.536 357.735,198.649 357.918 M206.864 358.138 C 207.469 358.230,208.363 358.227,208.852 358.133 C 209.341 358.038,208.847 357.964,207.753 357.967 C 206.660 357.970,206.260 358.047,206.864 358.138 M235.479 369.462 L 235.388 378.090 233.300 378.236 L 231.213 378.382 233.313 378.455 C 235.971 378.548,235.824 379.122,235.686 369.175 L 235.569 360.835 235.479 369.462 M231.182 369.384 C 231.182 373.867,231.240 375.701,231.310 373.459 C 231.381 371.218,231.381 367.550,231.310 365.308 C 231.240 363.067,231.182 364.901,231.182 369.384 M264.942 366.402 C 264.943 367.932,265.015 368.510,265.101 367.685 C 265.187 366.860,265.186 365.608,265.098 364.902 C 265.010 364.196,264.940 364.871,264.942 366.402 M151.292 364.612 L 146.123 364.848 151.169 364.929 C 154.195 364.977,156.314 364.851,156.461 364.612 C 156.596 364.394,156.652 364.251,156.584 364.296 C 156.517 364.341,154.135 364.483,151.292 364.612 M260.551 366.402 C 260.554 367.495,260.631 367.895,260.723 367.291 C 260.814 366.686,260.812 365.792,260.717 365.303 C 260.623 364.814,260.548 365.308,260.551 366.402 M245.925 375.680 C 246.581 376.410,247.475 377.192,247.913 377.419 C 248.350 377.646,248.529 377.674,248.310 377.483 C 248.091 377.292,247.197 376.509,246.323 375.744 L 244.733 374.354 245.925 375.680 M252.988 375.236 C 253.592 375.327,254.487 375.325,254.976 375.230 C 255.465 375.136,254.970 375.061,253.877 375.064 C 252.783 375.067,252.383 375.144,252.988 375.236 M187.645 376.856 C 187.881 378.320,187.895 378.330,189.866 378.371 L 191.849 378.411 189.960 378.249 C 188.181 378.097,188.072 378.021,188.072 376.940 C 188.072 376.309,187.922 375.700,187.739 375.587 C 187.557 375.474,187.514 376.045,187.645 376.856 M136.482 377.734 C 136.660 378.392,140.614 378.828,141.191 378.253 C 141.368 378.077,140.515 377.995,139.294 378.072 C 137.750 378.168,136.960 378.047,136.698 377.674 C 136.394 377.242,136.352 377.253,136.482 377.734 M166.600 377.701 C 166.600 378.062,165.899 378.162,164.053 378.066 C 162.651 377.992,161.588 378.067,161.690 378.231 C 161.978 378.693,166.521 378.582,166.816 378.105 C 166.960 377.872,166.970 377.573,166.839 377.442 C 166.708 377.311,166.600 377.427,166.600 377.701 M220.278 377.667 C 220.278 377.953,219.475 378.159,218.191 378.203 L 216.103 378.275 218.048 378.426 C 219.876 378.568,221.156 378.081,220.550 377.475 C 220.401 377.326,220.278 377.412,220.278 377.667 M272.626 378.231 C 272.727 378.395,273.594 378.529,274.553 378.529 C 275.511 378.529,276.378 378.395,276.479 378.231 C 276.581 378.067,275.714 377.932,274.553 377.932 C 273.392 377.932,272.525 378.067,272.626 378.231 M206.267 378.810 C 206.762 378.905,207.477 378.902,207.858 378.802 C 208.238 378.703,207.833 378.625,206.958 378.629 C 206.083 378.634,205.772 378.715,206.267 378.810 M309.249 378.810 C 309.744 378.905,310.459 378.902,310.840 378.802 C 311.220 378.703,310.815 378.625,309.940 378.629 C 309.066 378.634,308.755 378.715,309.249 378.810 M318.556 384.990 L 318.623 386.680 318.777 385.214 C 318.896 384.085,319.132 383.708,319.804 383.578 C 320.524 383.438,320.486 383.399,319.583 383.354 C 318.543 383.303,318.492 383.384,318.556 384.990 M320.974 387.948 C 321.357 388.048,321.983 388.048,322.366 387.948 C 322.749 387.848,322.435 387.766,321.670 387.766 C 320.905 387.766,320.591 387.848,320.974 387.948 " stroke="none" fill="#6b77a9" fill-rule="evenodd"></path></g></svg>